<svg width="984" height="195" viewBox="0 0 984 195" fill="none" xmlns="http://www.w3.org/2000/svg">
<path d="M618.472 16.126C617.632 16.126 616.876 15.982 616.204 15.694C615.532 15.394 615.004 14.974 614.62 14.434C614.236 13.894 614.044 13.264 614.044 12.544H616.24C616.288 13.084 616.498 13.528 616.87 13.876C617.254 14.224 617.788 14.398 618.472 14.398C619.18 14.398 619.732 14.23 620.128 13.894C620.524 13.546 620.722 13.102 620.722 12.562C620.722 12.142 620.596 11.8 620.344 11.536C620.104 11.272 619.798 11.068 619.426 10.924C619.066 10.78 618.562 10.624 617.914 10.456C617.098 10.24 616.432 10.024 615.916 9.808C615.412 9.58 614.98 9.232 614.62 8.764C614.26 8.296 614.08 7.672 614.08 6.892C614.08 6.172 614.26 5.542 614.62 5.002C614.98 4.462 615.484 4.048 616.132 3.76C616.78 3.472 617.53 3.328 618.382 3.328C619.594 3.328 620.584 3.634 621.352 4.246C622.132 4.846 622.564 5.674 622.648 6.73H620.38C620.344 6.274 620.128 5.884 619.732 5.56C619.336 5.236 618.814 5.074 618.166 5.074C617.578 5.074 617.098 5.224 616.726 5.524C616.354 5.824 616.168 6.256 616.168 6.82C616.168 7.204 616.282 7.522 616.51 7.774C616.75 8.014 617.05 8.206 617.41 8.35C617.77 8.494 618.262 8.65 618.886 8.818C619.714 9.046 620.386 9.274 620.902 9.502C621.43 9.73 621.874 10.084 622.234 10.564C622.606 11.032 622.792 11.662 622.792 12.454C622.792 13.09 622.618 13.69 622.27 14.254C621.934 14.818 621.436 15.274 620.776 15.622C620.128 15.958 619.36 16.126 618.472 16.126ZM634.195 6.082V16H632.143V14.83C631.819 15.238 631.393 15.562 630.865 15.802C630.349 16.03 629.797 16.144 629.209 16.144C628.429 16.144 627.727 15.982 627.103 15.658C626.491 15.334 626.005 14.854 625.645 14.218C625.297 13.582 625.123 12.814 625.123 11.914V6.082H627.157V11.608C627.157 12.496 627.379 13.18 627.823 13.66C628.267 14.128 628.873 14.362 629.641 14.362C630.409 14.362 631.015 14.128 631.459 13.66C631.915 13.18 632.143 12.496 632.143 11.608V6.082H634.195ZM638.955 7.54C639.303 7.084 639.777 6.7 640.377 6.388C640.977 6.076 641.655 5.92 642.411 5.92C643.275 5.92 644.061 6.136 644.769 6.568C645.489 6.988 646.053 7.582 646.461 8.35C646.869 9.118 647.073 10 647.073 10.996C647.073 11.992 646.869 12.886 646.461 13.678C646.053 14.458 645.489 15.07 644.769 15.514C644.061 15.946 643.275 16.162 642.411 16.162C641.655 16.162 640.983 16.012 640.395 15.712C639.807 15.4 639.327 15.016 638.955 14.56V20.716H636.903V6.082H638.955V7.54ZM644.985 10.996C644.985 10.312 644.841 9.724 644.553 9.232C644.277 8.728 643.905 8.35 643.437 8.098C642.981 7.834 642.489 7.702 641.961 7.702C641.445 7.702 640.953 7.834 640.485 8.098C640.029 8.362 639.657 8.746 639.369 9.25C639.093 9.754 638.955 10.348 638.955 11.032C638.955 11.716 639.093 12.316 639.369 12.832C639.657 13.336 640.029 13.72 640.485 13.984C640.953 14.248 641.445 14.38 641.961 14.38C642.489 14.38 642.981 14.248 643.437 13.984C643.905 13.708 644.277 13.312 644.553 12.796C644.841 12.28 644.985 11.68 644.985 10.996ZM651.154 7.54C651.502 7.084 651.976 6.7 652.576 6.388C653.176 6.076 653.854 5.92 654.61 5.92C655.474 5.92 656.26 6.136 656.968 6.568C657.688 6.988 658.252 7.582 658.66 8.35C659.068 9.118 659.272 10 659.272 10.996C659.272 11.992 659.068 12.886 658.66 13.678C658.252 14.458 657.688 15.07 656.968 15.514C656.26 15.946 655.474 16.162 654.61 16.162C653.854 16.162 653.182 16.012 652.594 15.712C652.006 15.4 651.526 15.016 651.154 14.56V20.716H649.102V6.082H651.154V7.54ZM657.184 10.996C657.184 10.312 657.04 9.724 656.752 9.232C656.476 8.728 656.104 8.35 655.636 8.098C655.18 7.834 654.688 7.702 654.16 7.702C653.644 7.702 653.152 7.834 652.684 8.098C652.228 8.362 651.856 8.746 651.568 9.25C651.292 9.754 651.154 10.348 651.154 11.032C651.154 11.716 651.292 12.316 651.568 12.832C651.856 13.336 652.228 13.72 652.684 13.984C653.152 14.248 653.644 14.38 654.16 14.38C654.688 14.38 655.18 14.248 655.636 13.984C656.104 13.708 656.476 13.312 656.752 12.796C657.04 12.28 657.184 11.68 657.184 10.996ZM665.603 16.162C664.667 16.162 663.821 15.952 663.065 15.532C662.309 15.1 661.715 14.5 661.283 13.732C660.851 12.952 660.635 12.052 660.635 11.032C660.635 10.024 660.857 9.13 661.301 8.35C661.745 7.57 662.351 6.97 663.119 6.55C663.887 6.13 664.745 5.92 665.693 5.92C666.641 5.92 667.499 6.13 668.267 6.55C669.035 6.97 669.641 7.57 670.085 8.35C670.529 9.13 670.751 10.024 670.751 11.032C670.751 12.04 670.523 12.934 670.067 13.714C669.611 14.494 668.987 15.1 668.195 15.532C667.415 15.952 666.551 16.162 665.603 16.162ZM665.603 14.38C666.131 14.38 666.623 14.254 667.079 14.002C667.547 13.75 667.925 13.372 668.213 12.868C668.501 12.364 668.645 11.752 668.645 11.032C668.645 10.312 668.507 9.706 668.231 9.214C667.955 8.71 667.589 8.332 667.133 8.08C666.677 7.828 666.185 7.702 665.657 7.702C665.129 7.702 664.637 7.828 664.181 8.08C663.737 8.332 663.383 8.71 663.119 9.214C662.855 9.706 662.723 10.312 662.723 11.032C662.723 12.1 662.993 12.928 663.533 13.516C664.085 14.092 664.775 14.38 665.603 14.38ZM674.832 7.522C675.132 7.018 675.528 6.628 676.02 6.352C676.524 6.064 677.118 5.92 677.802 5.92V8.044H677.28C676.476 8.044 675.864 8.248 675.444 8.656C675.036 9.064 674.832 9.772 674.832 10.78V16H672.78V6.082H674.832V7.522ZM682.082 7.756V13.246C682.082 13.618 682.166 13.888 682.334 14.056C682.514 14.212 682.814 14.29 683.234 14.29H684.494V16H682.874C681.95 16 681.242 15.784 680.75 15.352C680.258 14.92 680.012 14.218 680.012 13.246V7.756H678.842V6.082H680.012V3.616H682.082V6.082H684.494V7.756H682.082Z" fill="#212244"/>
<path d="M614.232 78H615.688V72.976H619.624V71.792H615.688V68.032H620.536V66.848H614.232V78ZM629.783 78H631.319L627.303 66.912H625.623L621.59 78H623.127L624.023 75.52H628.887L629.783 78ZM628.471 74.336H624.439L626.455 68.704L628.471 74.336ZM634.02 72.416C634.02 69.68 635.78 67.984 638.132 67.984C640.484 67.984 642.244 69.68 642.244 72.416C642.244 75.136 640.484 76.848 638.132 76.848C635.78 76.848 634.02 75.136 634.02 72.416ZM643.732 72.416C643.732 69.072 641.284 66.72 638.132 66.72C634.996 66.72 632.532 69.072 632.532 72.416C632.532 75.76 634.996 78.112 638.132 78.112C638.708 78.112 639.268 78.032 639.796 77.888L642.02 80.112H643.908L641.092 77.312C642.692 76.352 643.732 74.592 643.732 72.416ZM615.688 107.144V103.048H617.832C619.496 103.048 620.2 103.816 620.2 105.112C620.2 106.36 619.496 107.144 617.832 107.144H615.688ZM621.688 105.112C621.688 103.288 620.456 101.848 617.832 101.848H614.232V113H615.688V108.344H617.832C620.6 108.344 621.688 106.808 621.688 105.112ZM631.818 108.6C631.818 105.832 629.882 104.088 627.386 104.088C624.906 104.088 622.954 105.832 622.954 108.6C622.954 111.384 624.842 113.144 627.322 113.144C629.818 113.144 631.818 111.384 631.818 108.6ZM624.442 108.6C624.442 106.392 625.834 105.352 627.37 105.352C628.874 105.352 630.33 106.392 630.33 108.6C630.33 110.824 628.842 111.864 627.322 111.864C625.802 111.864 624.442 110.824 624.442 108.6ZM633.732 113H635.188V101.16H633.732V113ZM637.67 113H639.126V104.232H637.67V113ZM638.422 102.808C638.95 102.808 639.382 102.376 639.382 101.816C639.382 101.256 638.95 100.824 638.422 100.824C637.862 100.824 637.43 101.256 637.43 101.816C637.43 102.376 637.862 102.808 638.422 102.808ZM641.063 108.6C641.063 111.384 642.839 113.144 645.335 113.144C647.511 113.144 648.935 111.928 649.383 110.184H647.815C647.495 111.288 646.631 111.912 645.335 111.912C643.735 111.912 642.551 110.776 642.551 108.6C642.551 106.456 643.735 105.32 645.335 105.32C646.631 105.32 647.511 105.992 647.815 107.048H649.383C648.935 105.208 647.511 104.088 645.335 104.088C642.839 104.088 641.063 105.848 641.063 108.6ZM654.654 111.336L651.902 104.232H650.286L653.822 112.904L652.094 117.128H653.598L658.878 104.232H657.374L654.654 111.336ZM620.568 144.864C620.568 146.08 619.704 146.8 618.264 146.8H615.688V142.864H618.216C619.64 142.864 620.568 143.632 620.568 144.864ZM620.28 139.856C620.28 140.992 619.496 141.664 618.136 141.664H615.688V138.048H618.104C619.528 138.048 620.28 138.752 620.28 139.856ZM622.024 145.008C622.024 143.632 621.032 142.464 619.816 142.256C620.888 141.904 621.768 141.088 621.768 139.68C621.768 138.128 620.584 136.848 618.232 136.848H614.232V148H618.392C620.696 148 622.024 146.688 622.024 145.008ZM631.821 139.232H630.365V144.048C630.365 145.936 629.357 146.864 627.853 146.864C626.381 146.864 625.405 145.952 625.405 144.176V139.232H623.965V144.368C623.965 146.88 625.549 148.128 627.565 148.128C628.733 148.128 629.805 147.616 630.365 146.704V148H631.821V139.232ZM640.583 145.616C640.519 142.48 635.431 143.616 635.431 141.536C635.431 140.832 636.071 140.32 637.143 140.32C638.311 140.32 638.983 140.96 639.047 141.84H640.503C640.407 140.128 639.127 139.088 637.191 139.088C635.239 139.088 633.975 140.192 633.975 141.536C633.975 144.8 639.159 143.664 639.159 145.616C639.159 146.336 638.519 146.912 637.367 146.912C636.135 146.912 635.383 146.272 635.303 145.424H633.799C633.895 147.024 635.335 148.144 637.383 148.144C639.319 148.144 640.583 147.056 640.583 145.616ZM642.638 148H644.094V139.232H642.638V148ZM643.39 137.808C643.918 137.808 644.35 137.376 644.35 136.816C644.35 136.256 643.918 135.824 643.39 135.824C642.83 135.824 642.398 136.256 642.398 136.816C642.398 137.376 642.83 137.808 643.39 137.808ZM652.992 148H654.432V142.832C654.432 140.32 652.88 139.072 650.848 139.072C649.664 139.072 648.608 139.568 648.032 140.48V139.232H646.576V148H648.032V143.152C648.032 141.264 649.056 140.336 650.544 140.336C652.016 140.336 652.992 141.248 652.992 143.04V148ZM660.538 140.32C662.042 140.32 663.322 141.264 663.306 142.976H657.77C657.93 141.264 659.114 140.32 660.538 140.32ZM664.634 145.296H663.066C662.746 146.24 661.914 146.912 660.602 146.912C659.114 146.912 657.866 145.936 657.754 144.16H664.762C664.794 143.856 664.81 143.6 664.81 143.28C664.81 140.88 663.146 139.088 660.602 139.088C658.042 139.088 656.266 140.832 656.266 143.6C656.266 146.384 658.106 148.144 660.602 148.144C662.778 148.144 664.186 146.896 664.634 145.296ZM673.036 145.616C672.972 142.48 667.884 143.616 667.884 141.536C667.884 140.832 668.524 140.32 669.596 140.32C670.764 140.32 671.436 140.96 671.5 141.84H672.956C672.86 140.128 671.58 139.088 669.644 139.088C667.692 139.088 666.428 140.192 666.428 141.536C666.428 144.8 671.612 143.664 671.612 145.616C671.612 146.336 670.972 146.912 669.82 146.912C668.588 146.912 667.836 146.272 667.756 145.424H666.252C666.348 147.024 667.788 148.144 669.836 148.144C671.772 148.144 673.036 147.056 673.036 145.616ZM681.395 145.616C681.331 142.48 676.243 143.616 676.243 141.536C676.243 140.832 676.883 140.32 677.955 140.32C679.123 140.32 679.795 140.96 679.859 141.84H681.315C681.219 140.128 679.939 139.088 678.003 139.088C676.051 139.088 674.787 140.192 674.787 141.536C674.787 144.8 679.971 143.664 679.971 145.616C679.971 146.336 679.331 146.912 678.179 146.912C676.947 146.912 676.195 146.272 676.115 145.424H674.611C674.707 147.024 676.147 148.144 678.195 148.144C680.131 148.144 681.395 147.056 681.395 145.616ZM621.48 179.96C621.48 175.832 615.464 177.624 615.464 174.744C615.464 173.544 616.408 172.92 617.608 172.952C618.968 172.968 619.672 173.816 619.768 174.568H621.368C621.192 172.872 619.8 171.704 617.672 171.704C615.464 171.704 613.976 172.952 613.976 174.792C613.976 178.936 620.008 177.016 620.008 180.024C620.008 181.08 619.176 181.88 617.768 181.88C616.216 181.88 615.56 180.952 615.464 180.024H613.912C613.944 181.864 615.528 183.112 617.768 183.112C620.184 183.112 621.48 181.544 621.48 179.96ZM631.399 174.232H629.943V179.048C629.943 180.936 628.935 181.864 627.431 181.864C625.959 181.864 624.983 180.952 624.983 179.176V174.232H623.543V179.368C623.543 181.88 625.127 183.128 627.143 183.128C628.311 183.128 629.383 182.616 629.943 181.704V183H631.399V174.232ZM635.313 175.848V174.232H633.857V187.16H635.313V181.384C635.857 182.28 636.993 183.144 638.593 183.144C640.945 183.144 642.753 181.304 642.753 178.584C642.753 175.848 640.945 174.088 638.593 174.088C636.993 174.088 635.841 174.92 635.313 175.848ZM641.265 178.584C641.265 180.648 639.905 181.864 638.289 181.864C636.705 181.864 635.313 180.664 635.313 178.6C635.313 176.568 636.705 175.352 638.289 175.352C639.905 175.352 641.265 176.52 641.265 178.584ZM646.126 175.848V174.232H644.67V187.16H646.126V181.384C646.67 182.28 647.806 183.144 649.406 183.144C651.758 183.144 653.566 181.304 653.566 178.584C653.566 175.848 651.758 174.088 649.406 174.088C647.806 174.088 646.654 174.92 646.126 175.848ZM652.078 178.584C652.078 180.648 650.718 181.864 649.102 181.864C647.518 181.864 646.126 180.664 646.126 178.6C646.126 176.568 647.518 175.352 649.102 175.352C650.718 175.352 652.078 176.52 652.078 178.584ZM663.802 178.6C663.802 175.832 661.866 174.088 659.37 174.088C656.89 174.088 654.938 175.832 654.938 178.6C654.938 181.384 656.826 183.144 659.306 183.144C661.802 183.144 663.802 181.384 663.802 178.6ZM656.426 178.6C656.426 176.392 657.818 175.352 659.354 175.352C660.858 175.352 662.314 176.392 662.314 178.6C662.314 180.824 660.826 181.864 659.306 181.864C657.786 181.864 656.426 180.824 656.426 178.6ZM667.172 178.232C667.172 176.2 668.228 175.576 669.62 175.576H670.004V174.072C668.612 174.072 667.668 174.68 667.172 175.656V174.232H665.716V183H667.172V178.232ZM672.005 180.6C672.005 182.36 672.885 183 674.437 183H675.749V181.768H674.677C673.781 181.768 673.461 181.464 673.461 180.6V175.432H675.749V174.232H673.461V172.024H672.005V174.232H670.869V175.432H672.005V180.6ZM681.235 177.416C681.235 180.76 683.683 183.096 686.803 183.096C689.219 183.096 691.139 181.896 691.971 179.752H690.227C689.619 181.08 688.435 181.832 686.803 181.832C684.467 181.832 682.723 180.136 682.723 177.416C682.723 174.68 684.467 172.984 686.803 172.984C688.435 172.984 689.619 173.736 690.227 175.08H691.971C691.139 172.92 689.219 171.704 686.803 171.704C683.683 171.704 681.235 174.072 681.235 177.416ZM693.594 178.584C693.594 181.304 695.402 183.144 697.738 183.144C699.354 183.144 700.49 182.312 701.018 181.368V183H702.49V174.232H701.018V175.832C700.506 174.92 699.386 174.088 697.754 174.088C695.402 174.088 693.594 175.848 693.594 178.584ZM701.018 178.6C701.018 180.664 699.642 181.864 698.042 181.864C696.442 181.864 695.082 180.648 695.082 178.584C695.082 176.52 696.442 175.352 698.042 175.352C699.642 175.352 701.018 176.568 701.018 178.6ZM706.407 178.232C706.407 176.2 707.463 175.576 708.855 175.576H709.239V174.072C707.847 174.072 706.903 174.68 706.407 175.656V174.232H704.951V183H706.407V178.232ZM712.376 178.232C712.376 176.2 713.432 175.576 714.824 175.576H715.208V174.072C713.816 174.072 712.872 174.68 712.376 175.656V174.232H710.92V183H712.376V178.232ZM720.616 175.32C722.12 175.32 723.4 176.264 723.384 177.976H717.848C718.008 176.264 719.192 175.32 720.616 175.32ZM724.712 180.296H723.144C722.824 181.24 721.992 181.912 720.68 181.912C719.192 181.912 717.944 180.936 717.832 179.16H724.84C724.872 178.856 724.888 178.6 724.888 178.28C724.888 175.88 723.224 174.088 720.68 174.088C718.12 174.088 716.344 175.832 716.344 178.6C716.344 181.384 718.184 183.144 720.68 183.144C722.856 183.144 724.264 181.896 724.712 180.296ZM728.266 178.232C728.266 176.2 729.322 175.576 730.714 175.576H731.098V174.072C729.706 174.072 728.762 174.68 728.266 175.656V174.232H726.81V183H728.266V178.232Z" fill="#69697B"/>
<path d="M895.666 9.718C895.666 8.494 895.948 7.396 896.512 6.424C897.088 5.452 897.862 4.696 898.834 4.156C899.818 3.604 900.892 3.328 902.056 3.328C903.388 3.328 904.57 3.658 905.602 4.318C906.646 4.966 907.402 5.89 907.87 7.09H905.404C905.08 6.43 904.63 5.938 904.054 5.614C903.478 5.29 902.812 5.128 902.056 5.128C901.228 5.128 900.49 5.314 899.842 5.686C899.194 6.058 898.684 6.592 898.312 7.288C897.952 7.984 897.772 8.794 897.772 9.718C897.772 10.642 897.952 11.452 898.312 12.148C898.684 12.844 899.194 13.384 899.842 13.768C900.49 14.14 901.228 14.326 902.056 14.326C902.812 14.326 903.478 14.164 904.054 13.84C904.63 13.516 905.08 13.024 905.404 12.364H907.87C907.402 13.564 906.646 14.488 905.602 15.136C904.57 15.784 903.388 16.108 902.056 16.108C900.88 16.108 899.806 15.838 898.834 15.298C897.862 14.746 897.088 13.984 896.512 13.012C895.948 12.04 895.666 10.942 895.666 9.718ZM914.574 16.162C913.638 16.162 912.792 15.952 912.036 15.532C911.28 15.1 910.686 14.5 910.254 13.732C909.822 12.952 909.606 12.052 909.606 11.032C909.606 10.024 909.828 9.13 910.272 8.35C910.716 7.57 911.322 6.97 912.09 6.55C912.858 6.13 913.716 5.92 914.664 5.92C915.612 5.92 916.47 6.13 917.238 6.55C918.006 6.97 918.612 7.57 919.056 8.35C919.5 9.13 919.722 10.024 919.722 11.032C919.722 12.04 919.494 12.934 919.038 13.714C918.582 14.494 917.958 15.1 917.166 15.532C916.386 15.952 915.522 16.162 914.574 16.162ZM914.574 14.38C915.102 14.38 915.594 14.254 916.05 14.002C916.518 13.75 916.896 13.372 917.184 12.868C917.472 12.364 917.616 11.752 917.616 11.032C917.616 10.312 917.478 9.706 917.202 9.214C916.926 8.71 916.56 8.332 916.104 8.08C915.648 7.828 915.156 7.702 914.628 7.702C914.1 7.702 913.608 7.828 913.152 8.08C912.708 8.332 912.354 8.71 912.09 9.214C911.826 9.706 911.694 10.312 911.694 11.032C911.694 12.1 911.964 12.928 912.504 13.516C913.056 14.092 913.746 14.38 914.574 14.38ZM926.754 5.92C927.534 5.92 928.23 6.082 928.842 6.406C929.466 6.73 929.952 7.21 930.3 7.846C930.648 8.482 930.822 9.25 930.822 10.15V16H928.788V10.456C928.788 9.568 928.566 8.89 928.122 8.422C927.678 7.942 927.072 7.702 926.304 7.702C925.536 7.702 924.924 7.942 924.468 8.422C924.024 8.89 923.802 9.568 923.802 10.456V16H921.75V6.082H923.802V7.216C924.138 6.808 924.564 6.49 925.08 6.262C925.608 6.034 926.166 5.92 926.754 5.92ZM935.834 7.756V13.246C935.834 13.618 935.918 13.888 936.086 14.056C936.266 14.212 936.566 14.29 936.986 14.29H938.246V16H936.626C935.702 16 934.994 15.784 934.502 15.352C934.01 14.92 933.764 14.218 933.764 13.246V7.756H932.594V6.082H933.764V3.616H935.834V6.082H938.246V7.756H935.834ZM939.453 10.996C939.453 10 939.657 9.118 940.065 8.35C940.485 7.582 941.049 6.988 941.757 6.568C942.477 6.136 943.269 5.92 944.133 5.92C944.913 5.92 945.591 6.076 946.167 6.388C946.755 6.688 947.223 7.066 947.571 7.522V6.082H949.641V16H947.571V14.524C947.223 14.992 946.749 15.382 946.149 15.694C945.549 16.006 944.865 16.162 944.097 16.162C943.245 16.162 942.465 15.946 941.757 15.514C941.049 15.07 940.485 14.458 940.065 13.678C939.657 12.886 939.453 11.992 939.453 10.996ZM947.571 11.032C947.571 10.348 947.427 9.754 947.139 9.25C946.863 8.746 946.497 8.362 946.041 8.098C945.585 7.834 945.093 7.702 944.565 7.702C944.037 7.702 943.545 7.834 943.089 8.098C942.633 8.35 942.261 8.728 941.973 9.232C941.697 9.724 941.559 10.312 941.559 10.996C941.559 11.68 941.697 12.28 941.973 12.796C942.261 13.312 942.633 13.708 943.089 13.984C943.557 14.248 944.049 14.38 944.565 14.38C945.093 14.38 945.585 14.248 946.041 13.984C946.497 13.72 946.863 13.336 947.139 12.832C947.427 12.316 947.571 11.716 947.571 11.032ZM951.652 11.032C951.652 10.012 951.856 9.118 952.264 8.35C952.684 7.57 953.26 6.97 953.992 6.55C954.724 6.13 955.564 5.92 956.512 5.92C957.712 5.92 958.702 6.208 959.482 6.784C960.274 7.348 960.808 8.158 961.084 9.214H958.87C958.69 8.722 958.402 8.338 958.006 8.062C957.61 7.786 957.112 7.648 956.512 7.648C955.672 7.648 955 7.948 954.496 8.548C954.004 9.136 953.758 9.964 953.758 11.032C953.758 12.1 954.004 12.934 954.496 13.534C955 14.134 955.672 14.434 956.512 14.434C957.7 14.434 958.486 13.912 958.87 12.868H961.084C960.796 13.876 960.256 14.68 959.464 15.28C958.672 15.868 957.688 16.162 956.512 16.162C955.564 16.162 954.724 15.952 953.992 15.532C953.26 15.1 952.684 14.5 952.264 13.732C951.856 12.952 951.652 12.052 951.652 11.032ZM965.523 7.756V13.246C965.523 13.618 965.607 13.888 965.775 14.056C965.955 14.212 966.255 14.29 966.675 14.29H967.935V16H966.315C965.391 16 964.683 15.784 964.191 15.352C963.699 14.92 963.453 14.218 963.453 13.246V7.756H962.283V6.082H963.453V3.616H965.523V6.082H967.935V7.756H965.523Z" fill="#212244"/>
<path d="M898.488 78.016L900.104 78L902.792 69.024L905.384 78H907.016L910.248 66.848H908.68L906.232 76.272L903.672 66.848H902.04L899.352 76.304L896.92 66.848H895.368L898.488 78.016ZM911.841 78H913.297V73.152C913.297 71.264 914.321 70.336 915.809 70.336C917.281 70.336 918.257 71.248 918.257 73.04V78H919.697V72.832C919.697 70.32 918.145 69.072 916.193 69.072C914.961 69.072 913.873 69.568 913.297 70.496V66.16H911.841V78ZM921.532 73.584C921.532 76.304 923.34 78.144 925.676 78.144C927.292 78.144 928.428 77.312 928.956 76.368V78H930.428V69.232H928.956V70.832C928.444 69.92 927.324 69.088 925.692 69.088C923.34 69.088 921.532 70.848 921.532 73.584ZM928.956 73.6C928.956 75.664 927.58 76.864 925.98 76.864C924.38 76.864 923.02 75.648 923.02 73.584C923.02 71.52 924.38 70.352 925.98 70.352C927.58 70.352 928.956 71.568 928.956 73.6ZM933.208 75.6C933.208 77.36 934.088 78 935.64 78H936.952V76.768H935.88C934.984 76.768 934.664 76.464 934.664 75.6V70.432H936.952V69.232H934.664V67.024H933.208V69.232H932.072V70.432H933.208V75.6ZM945.02 75.616C944.956 72.48 939.868 73.616 939.868 71.536C939.868 70.832 940.508 70.32 941.58 70.32C942.748 70.32 943.42 70.96 943.484 71.84H944.94C944.844 70.128 943.564 69.088 941.628 69.088C939.676 69.088 938.412 70.192 938.412 71.536C938.412 74.8 943.596 73.664 943.596 75.616C943.596 76.336 942.956 76.912 941.804 76.912C940.572 76.912 939.82 76.272 939.74 75.424H938.236C938.332 77.024 939.772 78.144 941.82 78.144C943.756 78.144 945.02 77.056 945.02 75.616ZM954.564 78H956.1L952.084 66.912H950.404L946.372 78H947.908L948.804 75.52H953.668L954.564 78ZM953.252 74.336H949.22L951.236 68.704L953.252 74.336ZM959.313 70.848V69.232H957.857V82.16H959.313V76.384C959.857 77.28 960.993 78.144 962.593 78.144C964.945 78.144 966.753 76.304 966.753 73.584C966.753 70.848 964.945 69.088 962.593 69.088C960.993 69.088 959.841 69.92 959.313 70.848ZM965.265 73.584C965.265 75.648 963.905 76.864 962.289 76.864C960.705 76.864 959.313 75.664 959.313 73.6C959.313 71.568 960.705 70.352 962.289 70.352C963.905 70.352 965.265 71.52 965.265 73.584ZM970.126 70.848V69.232H968.67V82.16H970.126V76.384C970.67 77.28 971.806 78.144 973.406 78.144C975.758 78.144 977.566 76.304 977.566 73.584C977.566 70.848 975.758 69.088 973.406 69.088C971.806 69.088 970.654 69.92 970.126 70.848ZM976.078 73.584C976.078 75.648 974.718 76.864 973.102 76.864C971.518 76.864 970.126 75.664 970.126 73.6C970.126 71.568 971.518 70.352 973.102 70.352C974.718 70.352 976.078 71.52 976.078 73.584ZM903.48 109.96C903.48 105.832 897.464 107.624 897.464 104.744C897.464 103.544 898.408 102.92 899.608 102.952C900.968 102.968 901.672 103.816 901.768 104.568H903.368C903.192 102.872 901.8 101.704 899.672 101.704C897.464 101.704 895.976 102.952 895.976 104.792C895.976 108.936 902.008 107.016 902.008 110.024C902.008 111.08 901.176 111.88 899.768 111.88C898.216 111.88 897.56 110.952 897.464 110.024H895.912C895.944 111.864 897.528 113.112 899.768 113.112C902.184 113.112 903.48 111.544 903.48 109.96ZM913.399 104.232H911.943V109.048C911.943 110.936 910.935 111.864 909.431 111.864C907.959 111.864 906.983 110.952 906.983 109.176V104.232H905.543V109.368C905.543 111.88 907.127 113.128 909.143 113.128C910.311 113.128 911.383 112.616 911.943 111.704V113H913.399V104.232ZM917.313 105.848V104.232H915.857V117.16H917.313V111.384C917.857 112.28 918.993 113.144 920.593 113.144C922.945 113.144 924.753 111.304 924.753 108.584C924.753 105.848 922.945 104.088 920.593 104.088C918.993 104.088 917.841 104.92 917.313 105.848ZM923.265 108.584C923.265 110.648 921.905 111.864 920.289 111.864C918.705 111.864 917.313 110.664 917.313 108.6C917.313 106.568 918.705 105.352 920.289 105.352C921.905 105.352 923.265 106.52 923.265 108.584ZM928.126 105.848V104.232H926.67V117.16H928.126V111.384C928.67 112.28 929.806 113.144 931.406 113.144C933.758 113.144 935.566 111.304 935.566 108.584C935.566 105.848 933.758 104.088 931.406 104.088C929.806 104.088 928.654 104.92 928.126 105.848ZM934.078 108.584C934.078 110.648 932.718 111.864 931.102 111.864C929.518 111.864 928.126 110.664 928.126 108.6C928.126 106.568 929.518 105.352 931.102 105.352C932.718 105.352 934.078 106.52 934.078 108.584ZM945.802 108.6C945.802 105.832 943.866 104.088 941.37 104.088C938.89 104.088 936.938 105.832 936.938 108.6C936.938 111.384 938.826 113.144 941.306 113.144C943.802 113.144 945.802 111.384 945.802 108.6ZM938.426 108.6C938.426 106.392 939.818 105.352 941.354 105.352C942.858 105.352 944.314 106.392 944.314 108.6C944.314 110.824 942.826 111.864 941.306 111.864C939.786 111.864 938.426 110.824 938.426 108.6ZM949.172 108.232C949.172 106.2 950.228 105.576 951.62 105.576H952.004V104.072C950.612 104.072 949.668 104.68 949.172 105.656V104.232H947.716V113H949.172V108.232ZM954.005 110.6C954.005 112.36 954.885 113 956.437 113H957.749V111.768H956.677C955.781 111.768 955.461 111.464 955.461 110.6V105.432H957.749V104.232H955.461V102.024H954.005V104.232H952.869V105.432H954.005V110.6ZM963.363 112.872H971.059V111.656H965.555C967.619 109.976 970.723 107.528 970.723 104.648C970.723 102.504 969.315 101.224 967.139 101.224C965.059 101.224 963.507 102.504 963.411 104.968H964.819C964.883 103.512 965.651 102.472 967.155 102.472C968.723 102.472 969.283 103.432 969.283 104.712C969.283 107.08 966.403 109.384 963.363 111.832V112.872ZM978.31 113H979.75V110.424H981.35V109.16H979.75V101.544H978.006L972.39 109.32V110.424H978.31V113ZM974.07 109.16L978.374 103.064V109.16H974.07ZM897.176 142.416C897.176 139.68 898.936 137.984 901.288 137.984C903.64 137.984 905.4 139.68 905.4 142.416C905.4 145.136 903.64 146.848 901.288 146.848C898.936 146.848 897.176 145.136 897.176 142.416ZM906.888 142.416C906.888 139.072 904.44 136.72 901.288 136.72C898.152 136.72 895.688 139.072 895.688 142.416C895.688 145.76 898.152 148.112 901.288 148.112C901.864 148.112 902.424 148.032 902.952 147.888L905.176 150.112H907.064L904.248 147.312C905.848 146.352 906.888 144.592 906.888 142.416ZM916.617 139.232H915.161V144.048C915.161 145.936 914.153 146.864 912.649 146.864C911.177 146.864 910.201 145.952 910.201 144.176V139.232H908.761V144.368C908.761 146.88 910.345 148.128 912.361 148.128C913.529 148.128 914.601 147.616 915.161 146.704V148H916.617V139.232ZM919.076 148H920.532V139.232H919.076V148ZM919.828 137.808C920.356 137.808 920.788 137.376 920.788 136.816C920.788 136.256 920.356 135.824 919.828 135.824C919.268 135.824 918.836 136.256 918.836 136.816C918.836 137.376 919.268 137.808 919.828 137.808ZM922.469 143.6C922.469 146.384 924.245 148.144 926.741 148.144C928.917 148.144 930.341 146.928 930.789 145.184H929.221C928.901 146.288 928.037 146.912 926.741 146.912C925.141 146.912 923.957 145.776 923.957 143.6C923.957 141.456 925.141 140.32 926.741 140.32C928.037 140.32 928.917 140.992 929.221 142.048H930.789C930.341 140.208 928.917 139.088 926.741 139.088C924.245 139.088 922.469 140.848 922.469 143.6ZM932.732 148H934.188V144.128L937.628 148H939.612L935.468 143.6L939.596 139.232H937.564L934.188 143.12V136.16H932.732V148ZM944.688 142.416C944.688 145.76 947.136 148.096 950.256 148.096C952.672 148.096 954.592 146.896 955.424 144.752H953.68C953.072 146.08 951.888 146.832 950.256 146.832C947.92 146.832 946.176 145.136 946.176 142.416C946.176 139.68 947.92 137.984 950.256 137.984C951.888 137.984 953.072 138.736 953.68 140.08H955.424C954.592 137.92 952.672 136.704 950.256 136.704C947.136 136.704 944.688 139.072 944.688 142.416ZM957.591 148H959.047V143.152C959.047 141.264 960.071 140.336 961.559 140.336C963.031 140.336 964.007 141.248 964.007 143.04V148H965.447V142.832C965.447 140.32 963.895 139.072 961.943 139.072C960.711 139.072 959.623 139.568 959.047 140.496V136.16H957.591V148ZM967.282 143.584C967.282 146.304 969.09 148.144 971.426 148.144C973.042 148.144 974.178 147.312 974.706 146.368V148H976.178V139.232H974.706V140.832C974.194 139.92 973.074 139.088 971.442 139.088C969.09 139.088 967.282 140.848 967.282 143.584ZM974.706 143.6C974.706 145.664 973.33 146.864 971.73 146.864C970.13 146.864 968.77 145.648 968.77 143.584C968.77 141.52 970.13 140.352 971.73 140.352C973.33 140.352 974.706 141.568 974.706 143.6ZM978.958 145.6C978.958 147.36 979.838 148 981.39 148H982.702V146.768H981.63C980.734 146.768 980.414 146.464 980.414 145.6V140.432H982.702V139.232H980.414V137.024H978.958V139.232H977.822V140.432H978.958V145.6Z" fill="#69697B"/>
<path d="M7.824 75.52H2.96L2.064 78H0.528L4.56 66.912H6.24L10.256 78H8.72L7.824 75.52ZM7.408 74.336L5.392 68.704L3.376 74.336H7.408ZM13.4693 70.864C13.7679 70.3413 14.2053 69.9147 14.7812 69.584C15.3573 69.2533 16.0133 69.088 16.7493 69.088C17.5386 69.088 18.2479 69.2747 18.8773 69.648C19.5066 70.0213 20.0026 70.5493 20.3653 71.232C20.7279 71.904 20.9093 72.688 20.9093 73.584C20.9093 74.4693 20.7279 75.2587 20.3653 75.952C20.0026 76.6453 19.5012 77.184 18.8612 77.568C18.2319 77.952 17.5279 78.144 16.7493 78.144C15.9919 78.144 15.3253 77.9787 14.7493 77.648C14.1839 77.3173 13.7573 76.896 13.4693 76.384V78H12.0133V66.16H13.4693V70.864ZM19.4213 73.584C19.4213 72.9227 19.2879 72.3467 19.0213 71.856C18.7546 71.3653 18.3919 70.992 17.9333 70.736C17.4853 70.48 16.9893 70.352 16.4453 70.352C15.9119 70.352 15.4159 70.4853 14.9573 70.752C14.5093 71.008 14.1466 71.3867 13.8693 71.888C13.6026 72.3787 13.4693 72.9493 13.4693 73.6C13.4693 74.2613 13.6026 74.8427 13.8693 75.344C14.1466 75.8347 14.5093 76.2133 14.9573 76.48C15.4159 76.736 15.9119 76.864 16.4453 76.864C16.9893 76.864 17.4853 76.736 17.9333 76.48C18.3919 76.2133 18.7546 75.8347 19.0213 75.344C19.2879 74.8427 19.4213 74.256 19.4213 73.584ZM26.6498 78.144C25.8284 78.144 25.0818 77.9573 24.4098 77.584C23.7484 77.2107 23.2258 76.6827 22.8418 76C22.4684 75.3067 22.2818 74.5067 22.2818 73.6C22.2818 72.704 22.4738 71.9147 22.8578 71.232C23.2524 70.5387 23.7858 70.0107 24.4578 69.648C25.1298 69.2747 25.8818 69.088 26.7138 69.088C27.5458 69.088 28.2978 69.2747 28.9698 69.648C29.6418 70.0107 30.1698 70.5333 30.5538 71.216C30.9484 71.8987 31.1458 72.6933 31.1458 73.6C31.1458 74.5067 30.9431 75.3067 30.5378 76C30.1431 76.6827 29.6044 77.2107 28.9218 77.584C28.2391 77.9573 27.4818 78.144 26.6498 78.144ZM26.6498 76.864C27.1724 76.864 27.6631 76.7413 28.1218 76.496C28.5804 76.2507 28.9484 75.8827 29.2258 75.392C29.5138 74.9013 29.6578 74.304 29.6578 73.6C29.6578 72.896 29.5191 72.2987 29.2418 71.808C28.9644 71.3173 28.6018 70.9547 28.1538 70.72C27.7058 70.4747 27.2204 70.352 26.6978 70.352C26.1644 70.352 25.6738 70.4747 25.2258 70.72C24.7884 70.9547 24.4364 71.3173 24.1698 71.808C23.9031 72.2987 23.7698 72.896 23.7698 73.6C23.7698 74.3147 23.8978 74.9173 24.1538 75.408C24.4204 75.8987 24.7724 76.2667 25.2098 76.512C25.6471 76.7467 26.1271 76.864 26.6498 76.864ZM40.8361 69.232V78H39.3801V76.704C39.1028 77.152 38.7135 77.504 38.2121 77.76C37.7215 78.0053 37.1775 78.128 36.5801 78.128C35.8975 78.128 35.2841 77.9893 34.7401 77.712C34.1961 77.424 33.7641 76.9973 33.4441 76.432C33.1348 75.8667 32.9801 75.1787 32.9801 74.368V69.232H34.4201V74.176C34.4201 75.04 34.6388 75.7067 35.0761 76.176C35.5135 76.6347 36.1108 76.864 36.8681 76.864C37.6468 76.864 38.2601 76.624 38.7081 76.144C39.1561 75.664 39.3801 74.9653 39.3801 74.048V69.232H40.8361ZM45.0705 70.432V75.6C45.0705 76.0267 45.1612 76.3307 45.3425 76.512C45.5238 76.6827 45.8385 76.768 46.2865 76.768H47.3585V78H46.0465C45.2358 78 44.6278 77.8133 44.2225 77.44C43.8172 77.0667 43.6145 76.4533 43.6145 75.6V70.432H42.4785V69.232H43.6145V67.024H45.0705V69.232H47.3585V70.432H45.0705ZM54.8123 66.848V73.904C54.8123 74.896 55.0523 75.632 55.5323 76.112C56.0229 76.592 56.7003 76.832 57.5643 76.832C58.4176 76.832 59.0843 76.592 59.5643 76.112C60.0549 75.632 60.3003 74.896 60.3003 73.904V66.848H61.7563V73.888C61.7563 74.816 61.5696 75.6 61.1962 76.24C60.8229 76.8693 60.3163 77.3387 59.6763 77.648C59.0469 77.9573 58.3376 78.112 57.5483 78.112C56.7589 78.112 56.0443 77.9573 55.4043 77.648C54.7749 77.3387 54.2736 76.8693 53.9003 76.24C53.5376 75.6 53.3563 74.816 53.3563 73.888V66.848H54.8123ZM67.2891 78.144C66.6171 78.144 66.0145 78.032 65.4811 77.808C64.9478 77.5733 64.5265 77.2533 64.2171 76.848C63.9078 76.432 63.7371 75.9573 63.7051 75.424H65.2091C65.2518 75.8613 65.4545 76.2187 65.8171 76.496C66.1905 76.7733 66.6758 76.912 67.2731 76.912C67.8278 76.912 68.2651 76.7893 68.5851 76.544C68.9051 76.2987 69.0651 75.9893 69.0651 75.616C69.0651 75.232 68.8945 74.9493 68.5531 74.768C68.2118 74.576 67.6838 74.3893 66.9691 74.208C66.3185 74.0373 65.7851 73.8667 65.3691 73.696C64.9638 73.5147 64.6118 73.2533 64.3131 72.912C64.0251 72.56 63.8811 72.1013 63.8811 71.536C63.8811 71.088 64.0145 70.6773 64.2811 70.304C64.5478 69.9307 64.9265 69.6373 65.4171 69.424C65.9078 69.2 66.4678 69.088 67.0971 69.088C68.0678 69.088 68.8518 69.3333 69.4491 69.824C70.0465 70.3147 70.3665 70.9867 70.4091 71.84H68.9531C68.9211 71.3813 68.7345 71.0133 68.3931 70.736C68.0625 70.4587 67.6145 70.32 67.0491 70.32C66.5265 70.32 66.1105 70.432 65.8011 70.656C65.4918 70.88 65.3371 71.1733 65.3371 71.536C65.3371 71.824 65.4278 72.064 65.6091 72.256C65.8011 72.4373 66.0358 72.5867 66.3131 72.704C66.6011 72.8107 66.9958 72.9333 67.4971 73.072C68.1265 73.2427 68.6385 73.4133 69.0331 73.584C69.4278 73.744 69.7638 73.9893 70.0411 74.32C70.3291 74.6507 70.4785 75.0827 70.4891 75.616C70.4891 76.096 70.3558 76.528 70.0891 76.912C69.8225 77.296 69.4438 77.6 68.9531 77.824C68.4731 78.0373 67.9185 78.144 67.2891 78.144ZM6.816 107.256C7.22133 107.32 7.58933 107.485 7.92 107.752C8.26133 108.019 8.528 108.349 8.72 108.744C8.92267 109.139 9.024 109.56 9.024 110.008C9.024 110.573 8.88 111.085 8.592 111.544C8.304 111.992 7.88267 112.349 7.328 112.616C6.784 112.872 6.13867 113 5.392 113H1.232V101.848H5.232C5.98933 101.848 6.63467 101.976 7.168 102.232C7.70133 102.477 8.10133 102.813 8.368 103.24C8.63467 103.667 8.768 104.147 8.768 104.68C8.768 105.341 8.58667 105.891 8.224 106.328C7.872 106.755 7.40267 107.064 6.816 107.256ZM2.688 106.664H5.136C5.81867 106.664 6.34667 106.504 6.72 106.184C7.09333 105.864 7.28 105.421 7.28 104.856C7.28 104.291 7.09333 103.848 6.72 103.528C6.34667 103.208 5.808 103.048 5.104 103.048H2.688V106.664ZM5.264 111.8C5.98933 111.8 6.55467 111.629 6.96 111.288C7.36533 110.947 7.568 110.472 7.568 109.864C7.568 109.245 7.35467 108.76 6.928 108.408C6.50133 108.045 5.93067 107.864 5.216 107.864H2.688V111.8H5.264ZM12.5005 101.16V113H11.0445V101.16H12.5005ZM18.806 113.144C17.9847 113.144 17.238 112.957 16.566 112.584C15.9047 112.211 15.382 111.683 14.998 111C14.6247 110.307 14.438 109.507 14.438 108.6C14.438 107.704 14.63 106.915 15.014 106.232C15.4087 105.539 15.942 105.011 16.614 104.648C17.286 104.275 18.038 104.088 18.87 104.088C19.702 104.088 20.454 104.275 21.126 104.648C21.798 105.011 22.326 105.533 22.71 106.216C23.1047 106.899 23.302 107.693 23.302 108.6C23.302 109.507 23.0993 110.307 22.694 111C22.2993 111.683 21.7607 112.211 21.078 112.584C20.3953 112.957 19.638 113.144 18.806 113.144ZM18.806 111.864C19.3287 111.864 19.8193 111.741 20.278 111.496C20.7367 111.251 21.1047 110.883 21.382 110.392C21.67 109.901 21.814 109.304 21.814 108.6C21.814 107.896 21.6753 107.299 21.398 106.808C21.1207 106.317 20.758 105.955 20.31 105.72C19.862 105.475 19.3767 105.352 18.854 105.352C18.3207 105.352 17.83 105.475 17.382 105.72C16.9447 105.955 16.5927 106.317 16.326 106.808C16.0593 107.299 15.926 107.896 15.926 108.6C15.926 109.315 16.054 109.917 16.31 110.408C16.5767 110.899 16.9287 111.267 17.366 111.512C17.8033 111.747 18.2833 111.864 18.806 111.864ZM28.8324 104.088C29.5897 104.088 30.251 104.253 30.8164 104.584C31.3924 104.915 31.819 105.331 32.0964 105.832V104.232H33.5684V113.192C33.5684 113.992 33.3977 114.701 33.0564 115.32C32.715 115.949 32.2244 116.44 31.5844 116.792C30.955 117.144 30.219 117.32 29.3764 117.32C28.2244 117.32 27.2644 117.048 26.4964 116.504C25.7284 115.96 25.275 115.219 25.1364 114.28H26.5764C26.7364 114.813 27.067 115.24 27.5684 115.56C28.0697 115.891 28.6724 116.056 29.3764 116.056C30.1764 116.056 30.827 115.805 31.3284 115.304C31.8404 114.803 32.0964 114.099 32.0964 113.192V111.352C31.8084 111.864 31.3817 112.291 30.8164 112.632C30.251 112.973 29.5897 113.144 28.8324 113.144C28.0537 113.144 27.3444 112.952 26.7044 112.568C26.075 112.184 25.579 111.645 25.2164 110.952C24.8537 110.259 24.6724 109.469 24.6724 108.584C24.6724 107.688 24.8537 106.904 25.2164 106.232C25.579 105.549 26.075 105.021 26.7044 104.648C27.3444 104.275 28.0537 104.088 28.8324 104.088ZM32.0964 108.6C32.0964 107.939 31.963 107.363 31.6964 106.872C31.4297 106.381 31.067 106.008 30.6084 105.752C30.1604 105.485 29.6644 105.352 29.1204 105.352C28.5764 105.352 28.0804 105.48 27.6324 105.736C27.1844 105.992 26.827 106.365 26.5604 106.856C26.2937 107.347 26.1604 107.923 26.1604 108.584C26.1604 109.256 26.2937 109.843 26.5604 110.344C26.827 110.835 27.1844 111.213 27.6324 111.48C28.0804 111.736 28.5764 111.864 29.1204 111.864C29.6644 111.864 30.1604 111.736 30.6084 111.48C31.067 111.213 31.4297 110.835 31.6964 110.344C31.963 109.843 32.0964 109.261 32.0964 108.6ZM7.824 145.52H2.96L2.064 148H0.528L4.56 136.912H6.24L10.256 148H8.72L7.824 145.52ZM7.408 144.336L5.392 138.704L3.376 144.336H7.408ZM13.4693 136.16V148H12.0133V136.16H13.4693ZM17.4068 136.16V148H15.9508V136.16H17.4068ZM31.6099 140.112C31.6099 141.04 31.2899 141.813 30.6499 142.432C30.0205 143.04 29.0552 143.344 27.7539 143.344H25.6099V148H24.1539V136.848H27.7539C29.0125 136.848 29.9672 137.152 30.6179 137.76C31.2792 138.368 31.6099 139.152 31.6099 140.112ZM27.7539 142.144C28.5645 142.144 29.1619 141.968 29.5459 141.616C29.9299 141.264 30.1219 140.763 30.1219 140.112C30.1219 138.736 29.3325 138.048 27.7539 138.048H25.6099V142.144H27.7539ZM34.8755 140.656C35.1315 140.155 35.4942 139.765 35.9635 139.488C36.4435 139.211 37.0248 139.072 37.7075 139.072V140.576H37.3235C35.6915 140.576 34.8755 141.461 34.8755 143.232V148H33.4195V139.232H34.8755V140.656ZM43.2123 148.144C42.3909 148.144 41.6443 147.957 40.9723 147.584C40.3109 147.211 39.7883 146.683 39.4043 146C39.0309 145.307 38.8443 144.507 38.8443 143.6C38.8443 142.704 39.0363 141.915 39.4203 141.232C39.8149 140.539 40.3483 140.011 41.0203 139.648C41.6923 139.275 42.4443 139.088 43.2763 139.088C44.1083 139.088 44.8603 139.275 45.5323 139.648C46.2043 140.011 46.7323 140.533 47.1163 141.216C47.5109 141.899 47.7083 142.693 47.7083 143.6C47.7083 144.507 47.5056 145.307 47.1003 146C46.7056 146.683 46.1669 147.211 45.4843 147.584C44.8016 147.957 44.0443 148.144 43.2123 148.144ZM43.2123 146.864C43.7349 146.864 44.2256 146.741 44.6843 146.496C45.1429 146.251 45.5109 145.883 45.7883 145.392C46.0763 144.901 46.2203 144.304 46.2203 143.6C46.2203 142.896 46.0816 142.299 45.8043 141.808C45.5269 141.317 45.1643 140.955 44.7163 140.72C44.2683 140.475 43.7829 140.352 43.2603 140.352C42.7269 140.352 42.2363 140.475 41.7883 140.72C41.3509 140.955 40.9989 141.317 40.7323 141.808C40.4656 142.299 40.3323 142.896 40.3323 143.6C40.3323 144.315 40.4603 144.917 40.7163 145.408C40.9829 145.899 41.3349 146.267 41.7723 146.512C42.2096 146.747 42.6896 146.864 43.2123 146.864ZM49.0786 143.584C49.0786 142.688 49.26 141.904 49.6226 141.232C49.9853 140.549 50.4813 140.021 51.1106 139.648C51.7506 139.275 52.4653 139.088 53.2546 139.088C53.9373 139.088 54.572 139.248 55.1586 139.568C55.7453 139.877 56.1933 140.288 56.5026 140.8V136.16H57.9746V148H56.5026V146.352C56.2146 146.875 55.788 147.307 55.2226 147.648C54.6573 147.979 53.996 148.144 53.2386 148.144C52.46 148.144 51.7506 147.952 51.1106 147.568C50.4813 147.184 49.9853 146.645 49.6226 145.952C49.26 145.259 49.0786 144.469 49.0786 143.584ZM56.5026 143.6C56.5026 142.939 56.3693 142.363 56.1026 141.872C55.836 141.381 55.4733 141.008 55.0146 140.752C54.5666 140.485 54.0706 140.352 53.5266 140.352C52.9826 140.352 52.4866 140.48 52.0386 140.736C51.5906 140.992 51.2333 141.365 50.9666 141.856C50.7 142.347 50.5666 142.923 50.5666 143.584C50.5666 144.256 50.7 144.843 50.9666 145.344C51.2333 145.835 51.5906 146.213 52.0386 146.48C52.4866 146.736 52.9826 146.864 53.5266 146.864C54.0706 146.864 54.5666 146.736 55.0146 146.48C55.4733 146.213 55.836 145.835 56.1026 145.344C56.3693 144.843 56.5026 144.261 56.5026 143.6ZM68.2111 139.232V148H66.7551V146.704C66.4778 147.152 66.0885 147.504 65.5871 147.76C65.0965 148.005 64.5525 148.128 63.9551 148.128C63.2725 148.128 62.6591 147.989 62.1151 147.712C61.5711 147.424 61.1391 146.997 60.8191 146.432C60.5098 145.867 60.3551 145.179 60.3551 144.368V139.232H61.7951V144.176C61.7951 145.04 62.0138 145.707 62.4511 146.176C62.8885 146.635 63.4858 146.864 64.2431 146.864C65.0218 146.864 65.6351 146.624 66.0831 146.144C66.5311 145.664 66.7551 144.965 66.7551 144.048V139.232H68.2111ZM70.1255 143.6C70.1255 142.693 70.3068 141.904 70.6695 141.232C71.0322 140.549 71.5335 140.021 72.1735 139.648C72.8242 139.275 73.5655 139.088 74.3975 139.088C75.4748 139.088 76.3602 139.349 77.0535 139.872C77.7575 140.395 78.2215 141.12 78.4455 142.048H76.8775C76.7282 141.515 76.4348 141.093 75.9975 140.784C75.5708 140.475 75.0375 140.32 74.3975 140.32C73.5655 140.32 72.8935 140.608 72.3815 141.184C71.8695 141.749 71.6135 142.555 71.6135 143.6C71.6135 144.656 71.8695 145.472 72.3815 146.048C72.8935 146.624 73.5655 146.912 74.3975 146.912C75.0375 146.912 75.5708 146.763 75.9975 146.464C76.4242 146.165 76.7175 145.739 76.8775 145.184H78.4455C78.2108 146.08 77.7415 146.8 77.0375 147.344C76.3335 147.877 75.4535 148.144 74.3975 148.144C73.5655 148.144 72.8242 147.957 72.1735 147.584C71.5335 147.211 71.0322 146.683 70.6695 146C70.3068 145.317 70.1255 144.517 70.1255 143.6ZM82.1643 140.432V145.6C82.1643 146.027 82.2549 146.331 82.4363 146.512C82.6176 146.683 82.9323 146.768 83.3802 146.768H84.4523V148H83.1403C82.3296 148 81.7216 147.813 81.3163 147.44C80.9109 147.067 80.7083 146.453 80.7083 145.6V140.432H79.5723V139.232H80.7083V137.024H82.1643V139.232H84.4523V140.432H82.1643ZM89.3204 148.144C88.6484 148.144 88.0457 148.032 87.5124 147.808C86.979 147.573 86.5577 147.253 86.2484 146.848C85.939 146.432 85.7684 145.957 85.7364 145.424H87.2404C87.283 145.861 87.4857 146.219 87.8484 146.496C88.2217 146.773 88.707 146.912 89.3044 146.912C89.859 146.912 90.2964 146.789 90.6164 146.544C90.9364 146.299 91.0964 145.989 91.0964 145.616C91.0964 145.232 90.9257 144.949 90.5844 144.768C90.243 144.576 89.715 144.389 89.0004 144.208C88.3497 144.037 87.8164 143.867 87.4004 143.696C86.995 143.515 86.643 143.253 86.3444 142.912C86.0564 142.56 85.9124 142.101 85.9124 141.536C85.9124 141.088 86.0457 140.677 86.3124 140.304C86.579 139.931 86.9577 139.637 87.4484 139.424C87.939 139.2 88.499 139.088 89.1284 139.088C90.099 139.088 90.883 139.333 91.4804 139.824C92.0777 140.315 92.3977 140.987 92.4404 141.84H90.9844C90.9524 141.381 90.7657 141.013 90.4244 140.736C90.0937 140.459 89.6457 140.32 89.0804 140.32C88.5577 140.32 88.1417 140.432 87.8324 140.656C87.523 140.88 87.3684 141.173 87.3684 141.536C87.3684 141.824 87.459 142.064 87.6404 142.256C87.8324 142.437 88.067 142.587 88.3444 142.704C88.6324 142.811 89.027 142.933 89.5284 143.072C90.1577 143.243 90.6697 143.413 91.0644 143.584C91.459 143.744 91.795 143.989 92.0724 144.32C92.3604 144.651 92.5097 145.083 92.5204 145.616C92.5204 146.096 92.387 146.528 92.1204 146.912C91.8537 147.296 91.475 147.6 90.9844 147.824C90.5044 148.037 89.9497 148.144 89.3204 148.144ZM2.688 181.816H6.592V183H1.232V171.848H2.688V181.816ZM11.9623 183.144C11.1409 183.144 10.3943 182.957 9.72225 182.584C9.06092 182.211 8.53825 181.683 8.15425 181C7.78092 180.307 7.59425 179.507 7.59425 178.6C7.59425 177.704 7.78625 176.915 8.17025 176.232C8.56492 175.539 9.09825 175.011 9.77025 174.648C10.4423 174.275 11.1943 174.088 12.0263 174.088C12.8583 174.088 13.6103 174.275 14.2823 174.648C14.9543 175.011 15.4823 175.533 15.8663 176.216C16.2609 176.899 16.4583 177.693 16.4583 178.6C16.4583 179.507 16.2556 180.307 15.8503 181C15.4556 181.683 14.9169 182.211 14.2343 182.584C13.5516 182.957 12.7943 183.144 11.9623 183.144ZM11.9623 181.864C12.4849 181.864 12.9756 181.741 13.4343 181.496C13.8929 181.251 14.2609 180.883 14.5383 180.392C14.8263 179.901 14.9703 179.304 14.9703 178.6C14.9703 177.896 14.8316 177.299 14.5543 176.808C14.2769 176.317 13.9143 175.955 13.4663 175.72C13.0183 175.475 12.5329 175.352 12.0103 175.352C11.4769 175.352 10.9863 175.475 10.5383 175.72C10.1009 175.955 9.74892 176.317 9.48225 176.808C9.21558 177.299 9.08225 177.896 9.08225 178.6C9.08225 179.315 9.21025 179.917 9.46625 180.408C9.73292 180.899 10.0849 181.267 10.5223 181.512C10.9596 181.747 11.4396 181.864 11.9623 181.864ZM17.8286 178.6C17.8286 177.693 18.01 176.904 18.3726 176.232C18.7353 175.549 19.2366 175.021 19.8766 174.648C20.5273 174.275 21.2686 174.088 22.1006 174.088C23.178 174.088 24.0633 174.349 24.7566 174.872C25.4606 175.395 25.9246 176.12 26.1486 177.048H24.5806C24.4313 176.515 24.138 176.093 23.7006 175.784C23.274 175.475 22.7406 175.32 22.1006 175.32C21.2686 175.32 20.5966 175.608 20.0846 176.184C19.5726 176.749 19.3166 177.555 19.3166 178.6C19.3166 179.656 19.5726 180.472 20.0846 181.048C20.5966 181.624 21.2686 181.912 22.1006 181.912C22.7406 181.912 23.274 181.763 23.7006 181.464C24.1273 181.165 24.4206 180.739 24.5806 180.184H26.1486C25.914 181.08 25.4446 181.8 24.7406 182.344C24.0366 182.877 23.1566 183.144 22.1006 183.144C21.2686 183.144 20.5273 182.957 19.8766 182.584C19.2366 182.211 18.7353 181.683 18.3726 181C18.01 180.317 17.8286 179.517 17.8286 178.6ZM27.5474 178.584C27.5474 177.688 27.7287 176.904 28.0914 176.232C28.454 175.549 28.95 175.021 29.5794 174.648C30.2194 174.275 30.9287 174.088 31.7074 174.088C32.4754 174.088 33.142 174.253 33.7074 174.584C34.2727 174.915 34.694 175.331 34.9714 175.832V174.232H36.4434V183H34.9714V181.368C34.6834 181.88 34.2514 182.307 33.6754 182.648C33.11 182.979 32.4487 183.144 31.6914 183.144C30.9127 183.144 30.2087 182.952 29.5794 182.568C28.95 182.184 28.454 181.645 28.0914 180.952C27.7287 180.259 27.5474 179.469 27.5474 178.584ZM34.9714 178.6C34.9714 177.939 34.838 177.363 34.5714 176.872C34.3047 176.381 33.942 176.008 33.4834 175.752C33.0354 175.485 32.5394 175.352 31.9954 175.352C31.4514 175.352 30.9554 175.48 30.5074 175.736C30.0594 175.992 29.702 176.365 29.4354 176.856C29.1687 177.347 29.0354 177.923 29.0354 178.584C29.0354 179.256 29.1687 179.843 29.4354 180.344C29.702 180.835 30.0594 181.213 30.5074 181.48C30.9554 181.736 31.4514 181.864 31.9954 181.864C32.5394 181.864 33.0354 181.736 33.4834 181.48C33.942 181.213 34.3047 180.835 34.5714 180.344C34.838 179.843 34.9714 179.261 34.9714 178.6ZM40.6799 175.432V180.6C40.6799 181.027 40.7705 181.331 40.9519 181.512C41.1332 181.683 41.4479 181.768 41.8959 181.768H42.9679V183H41.6559C40.8452 183 40.2372 182.813 39.8319 182.44C39.4265 182.067 39.2239 181.453 39.2239 180.6V175.432H38.0879V174.232H39.2239V172.024H40.6799V174.232H42.9679V175.432H40.6799ZM45.484 172.808C45.2067 172.808 44.972 172.712 44.78 172.52C44.588 172.328 44.492 172.093 44.492 171.816C44.492 171.539 44.588 171.304 44.78 171.112C44.972 170.92 45.2067 170.824 45.484 170.824C45.7507 170.824 45.9747 170.92 46.156 171.112C46.348 171.304 46.444 171.539 46.444 171.816C46.444 172.093 46.348 172.328 46.156 172.52C45.9747 172.712 45.7507 172.808 45.484 172.808ZM46.188 174.232V183H44.732V174.232H46.188ZM52.4935 183.144C51.6722 183.144 50.9255 182.957 50.2535 182.584C49.5922 182.211 49.0695 181.683 48.6855 181C48.3122 180.307 48.1255 179.507 48.1255 178.6C48.1255 177.704 48.3175 176.915 48.7015 176.232C49.0962 175.539 49.6295 175.011 50.3015 174.648C50.9735 174.275 51.7255 174.088 52.5575 174.088C53.3895 174.088 54.1415 174.275 54.8135 174.648C55.4855 175.011 56.0135 175.533 56.3975 176.216C56.7922 176.899 56.9895 177.693 56.9895 178.6C56.9895 179.507 56.7868 180.307 56.3815 181C55.9868 181.683 55.4482 182.211 54.7655 182.584C54.0828 182.957 53.3255 183.144 52.4935 183.144ZM52.4935 181.864C53.0162 181.864 53.5068 181.741 53.9655 181.496C54.4242 181.251 54.7922 180.883 55.0695 180.392C55.3575 179.901 55.5015 179.304 55.5015 178.6C55.5015 177.896 55.3628 177.299 55.0855 176.808C54.8082 176.317 54.4455 175.955 53.9975 175.72C53.5495 175.475 53.0642 175.352 52.5415 175.352C52.0082 175.352 51.5175 175.475 51.0695 175.72C50.6322 175.955 50.2802 176.317 50.0135 176.808C49.7468 177.299 49.6135 177.896 49.6135 178.6C49.6135 179.315 49.7415 179.917 49.9975 180.408C50.2642 180.899 50.6162 181.267 51.0535 181.512C51.4908 181.747 51.9708 181.864 52.4935 181.864ZM63.1759 174.072C64.2425 174.072 65.1065 174.397 65.7679 175.048C66.4292 175.688 66.7599 176.616 66.7599 177.832V183H65.3199V178.04C65.3199 177.165 65.1012 176.499 64.6639 176.04C64.2265 175.571 63.6292 175.336 62.8719 175.336C62.1039 175.336 61.4905 175.576 61.0319 176.056C60.5839 176.536 60.3599 177.235 60.3599 178.152V183H58.9039V174.232H60.3599V175.48C60.6479 175.032 61.0372 174.685 61.5279 174.44C62.0292 174.195 62.5785 174.072 63.1759 174.072ZM72.2423 183.144C71.5703 183.144 70.9676 183.032 70.4343 182.808C69.9009 182.573 69.4796 182.253 69.1703 181.848C68.8609 181.432 68.6903 180.957 68.6583 180.424H70.1623C70.2049 180.861 70.4076 181.219 70.7703 181.496C71.1436 181.773 71.6289 181.912 72.2263 181.912C72.7809 181.912 73.2183 181.789 73.5383 181.544C73.8583 181.299 74.0183 180.989 74.0183 180.616C74.0183 180.232 73.8476 179.949 73.5063 179.768C73.1649 179.576 72.6369 179.389 71.9223 179.208C71.2716 179.037 70.7383 178.867 70.3223 178.696C69.9169 178.515 69.5649 178.253 69.2663 177.912C68.9783 177.56 68.8343 177.101 68.8343 176.536C68.8343 176.088 68.9676 175.677 69.2343 175.304C69.5009 174.931 69.8796 174.637 70.3703 174.424C70.8609 174.2 71.4209 174.088 72.0503 174.088C73.0209 174.088 73.8049 174.333 74.4023 174.824C74.9996 175.315 75.3196 175.987 75.3623 176.84H73.9063C73.8743 176.381 73.6876 176.013 73.3463 175.736C73.0156 175.459 72.5676 175.32 72.0023 175.32C71.4796 175.32 71.0636 175.432 70.7543 175.656C70.4449 175.88 70.2903 176.173 70.2903 176.536C70.2903 176.824 70.3809 177.064 70.5623 177.256C70.7543 177.437 70.9889 177.587 71.2663 177.704C71.5543 177.811 71.9489 177.933 72.4503 178.072C73.0796 178.243 73.5916 178.413 73.9863 178.584C74.3809 178.744 74.7169 178.989 74.9943 179.32C75.2823 179.651 75.4316 180.083 75.4423 180.616C75.4423 181.096 75.3089 181.528 75.0423 181.912C74.7756 182.296 74.3969 182.6 73.9063 182.824C73.4263 183.037 72.8716 183.144 72.2423 183.144ZM93.0753 171.928V183H91.6193V174.744L87.9393 183H86.9153L83.2193 174.728V183H81.7633V171.928H83.3313L87.4273 181.08L91.5233 171.928H93.0753ZM95.0005 178.584C95.0005 177.688 95.1818 176.904 95.5445 176.232C95.9072 175.549 96.4032 175.021 97.0325 174.648C97.6725 174.275 98.3818 174.088 99.1605 174.088C99.9285 174.088 100.595 174.253 101.161 174.584C101.726 174.915 102.147 175.331 102.425 175.832V174.232H103.897V183H102.425V181.368C102.137 181.88 101.705 182.307 101.129 182.648C100.563 182.979 99.9018 183.144 99.1445 183.144C98.3658 183.144 97.6618 182.952 97.0325 182.568C96.4032 182.184 95.9072 181.645 95.5445 180.952C95.1818 180.259 95.0005 179.469 95.0005 178.584ZM102.425 178.6C102.425 177.939 102.291 177.363 102.025 176.872C101.758 176.381 101.395 176.008 100.937 175.752C100.489 175.485 99.9925 175.352 99.4485 175.352C98.9045 175.352 98.4085 175.48 97.9605 175.736C97.5125 175.992 97.1552 176.365 96.8885 176.856C96.6218 177.347 96.4885 177.923 96.4885 178.584C96.4885 179.256 96.6218 179.843 96.8885 180.344C97.1552 180.835 97.5125 181.213 97.9605 181.48C98.4085 181.736 98.9045 181.864 99.4485 181.864C99.9925 181.864 100.489 181.736 100.937 181.48C101.395 181.213 101.758 180.835 102.025 180.344C102.291 179.843 102.425 179.261 102.425 178.6ZM107.813 175.848C108.101 175.347 108.528 174.931 109.093 174.6C109.669 174.259 110.336 174.088 111.093 174.088C111.872 174.088 112.576 174.275 113.205 174.648C113.845 175.021 114.346 175.549 114.709 176.232C115.072 176.904 115.253 177.688 115.253 178.584C115.253 179.469 115.072 180.259 114.709 180.952C114.346 181.645 113.845 182.184 113.205 182.568C112.576 182.952 111.872 183.144 111.093 183.144C110.346 183.144 109.685 182.979 109.109 182.648C108.544 182.307 108.112 181.885 107.813 181.384V187.16H106.357V174.232H107.813V175.848ZM113.765 178.584C113.765 177.923 113.632 177.347 113.365 176.856C113.098 176.365 112.736 175.992 112.277 175.736C111.829 175.48 111.333 175.352 110.789 175.352C110.256 175.352 109.76 175.485 109.301 175.752C108.853 176.008 108.49 176.387 108.213 176.888C107.946 177.379 107.813 177.949 107.813 178.6C107.813 179.261 107.946 179.843 108.213 180.344C108.49 180.835 108.853 181.213 109.301 181.48C109.76 181.736 110.256 181.864 110.789 181.864C111.333 181.864 111.829 181.736 112.277 181.48C112.736 181.213 113.098 180.835 113.365 180.344C113.632 179.843 113.765 179.256 113.765 178.584Z" fill="#69697B"/>
<path d="M0.63 9.7C0.63 8.464 0.906 7.36 1.458 6.388C2.022 5.404 2.784 4.642 3.744 4.102C4.716 3.55 5.802 3.274 7.002 3.274C8.406 3.274 9.636 3.634 10.692 4.354C11.748 5.074 12.486 6.07 12.906 7.342H10.008C9.72 6.742 9.312 6.292 8.784 5.992C8.268 5.692 7.668 5.542 6.984 5.542C6.252 5.542 5.598 5.716 5.022 6.064C4.458 6.4 4.014 6.88 3.69 7.504C3.378 8.128 3.222 8.86 3.222 9.7C3.222 10.528 3.378 11.26 3.69 11.896C4.014 12.52 4.458 13.006 5.022 13.354C5.598 13.69 6.252 13.858 6.984 13.858C7.668 13.858 8.268 13.708 8.784 13.408C9.312 13.096 9.72 12.64 10.008 12.04H12.906C12.486 13.324 11.748 14.326 10.692 15.046C9.648 15.754 8.418 16.108 7.002 16.108C5.802 16.108 4.716 15.838 3.744 15.298C2.784 14.746 2.022 13.984 1.458 13.012C0.906 12.04 0.63 10.936 0.63 9.7ZM19.3064 16.162C18.3464 16.162 17.4824 15.952 16.7144 15.532C15.9464 15.1 15.3404 14.494 14.8964 13.714C14.4644 12.934 14.2484 12.034 14.2484 11.014C14.2484 9.994 14.4704 9.094 14.9144 8.314C15.3704 7.534 15.9884 6.934 16.7684 6.514C17.5484 6.082 18.4184 5.866 19.3784 5.866C20.3384 5.866 21.2084 6.082 21.9884 6.514C22.7684 6.934 23.3804 7.534 23.8244 8.314C24.2804 9.094 24.5084 9.994 24.5084 11.014C24.5084 12.034 24.2744 12.934 23.8064 13.714C23.3504 14.494 22.7264 15.1 21.9344 15.532C21.1544 15.952 20.2784 16.162 19.3064 16.162ZM19.3064 13.966C19.7624 13.966 20.1884 13.858 20.5844 13.642C20.9924 13.414 21.3164 13.078 21.5564 12.634C21.7964 12.19 21.9164 11.65 21.9164 11.014C21.9164 10.066 21.6644 9.34 21.1604 8.836C20.6684 8.32 20.0624 8.062 19.3424 8.062C18.6224 8.062 18.0164 8.32 17.5244 8.836C17.0444 9.34 16.8044 10.066 16.8044 11.014C16.8044 11.962 17.0384 12.694 17.5064 13.21C17.9864 13.714 18.5864 13.966 19.3064 13.966ZM38.5609 5.884C39.7849 5.884 40.7689 6.262 41.5129 7.018C42.2689 7.762 42.6469 8.806 42.6469 10.15V16H40.1269V10.492C40.1269 9.712 39.9289 9.118 39.5329 8.71C39.1369 8.29 38.5969 8.08 37.9129 8.08C37.2289 8.08 36.6829 8.29 36.2749 8.71C35.8789 9.118 35.6809 9.712 35.6809 10.492V16H33.1609V10.492C33.1609 9.712 32.9629 9.118 32.5669 8.71C32.1709 8.29 31.6309 8.08 30.9469 8.08C30.2509 8.08 29.6989 8.29 29.2909 8.71C28.8949 9.118 28.6969 9.712 28.6969 10.492V16H26.1769V6.028H28.6969V7.234C29.0209 6.814 29.4349 6.484 29.9389 6.244C30.4549 6.004 31.0189 5.884 31.6309 5.884C32.4109 5.884 33.1069 6.052 33.7189 6.388C34.3309 6.712 34.8049 7.18 35.1409 7.792C35.4649 7.216 35.9329 6.754 36.5449 6.406C37.1689 6.058 37.8409 5.884 38.5609 5.884ZM47.3782 7.468C47.7022 7.012 48.1462 6.634 48.7102 6.334C49.2862 6.022 49.9402 5.866 50.6722 5.866C51.5242 5.866 52.2922 6.076 52.9762 6.496C53.6722 6.916 54.2182 7.516 54.6142 8.296C55.0222 9.064 55.2262 9.958 55.2262 10.978C55.2262 11.998 55.0222 12.904 54.6142 13.696C54.2182 14.476 53.6722 15.082 52.9762 15.514C52.2922 15.946 51.5242 16.162 50.6722 16.162C49.9402 16.162 49.2922 16.012 48.7282 15.712C48.1762 15.412 47.7262 15.034 47.3782 14.578V20.752H44.8582V6.028H47.3782V7.468ZM52.6522 10.978C52.6522 10.378 52.5262 9.862 52.2742 9.43C52.0342 8.986 51.7102 8.65 51.3022 8.422C50.9062 8.194 50.4742 8.08 50.0062 8.08C49.5502 8.08 49.1182 8.2 48.7102 8.44C48.3142 8.668 47.9902 9.004 47.7382 9.448C47.4982 9.892 47.3782 10.414 47.3782 11.014C47.3782 11.614 47.4982 12.136 47.7382 12.58C47.9902 13.024 48.3142 13.366 48.7102 13.606C49.1182 13.834 49.5502 13.948 50.0062 13.948C50.4742 13.948 50.9062 13.828 51.3022 13.588C51.7102 13.348 52.0342 13.006 52.2742 12.562C52.5262 12.118 52.6522 11.59 52.6522 10.978ZM56.2295 10.978C56.2295 9.97 56.4275 9.076 56.8235 8.296C57.2315 7.516 57.7775 6.916 58.4615 6.496C59.1575 6.076 59.9315 5.866 60.7835 5.866C61.5275 5.866 62.1755 6.016 62.7275 6.316C63.2915 6.616 63.7415 6.994 64.0775 7.45V6.028H66.6155V16H64.0775V14.542C63.7535 15.01 63.3035 15.4 62.7275 15.712C62.1635 16.012 61.5095 16.162 60.7655 16.162C59.9255 16.162 59.1575 15.946 58.4615 15.514C57.7775 15.082 57.2315 14.476 56.8235 13.696C56.4275 12.904 56.2295 11.998 56.2295 10.978ZM64.0775 11.014C64.0775 10.402 63.9575 9.88 63.7175 9.448C63.4775 9.004 63.1535 8.668 62.7455 8.44C62.3375 8.2 61.8995 8.08 61.4315 8.08C60.9635 8.08 60.5315 8.194 60.1355 8.422C59.7395 8.65 59.4155 8.986 59.1635 9.43C58.9235 9.862 58.8035 10.378 58.8035 10.978C58.8035 11.578 58.9235 12.106 59.1635 12.562C59.4155 13.006 59.7395 13.348 60.1355 13.588C60.5435 13.828 60.9755 13.948 61.4315 13.948C61.8995 13.948 62.3375 13.834 62.7455 13.606C63.1535 13.366 63.4775 13.03 63.7175 12.598C63.9575 12.154 64.0775 11.626 64.0775 11.014ZM74.4227 5.884C75.6107 5.884 76.5707 6.262 77.3027 7.018C78.0347 7.762 78.4007 8.806 78.4007 10.15V16H75.8807V10.492C75.8807 9.7 75.6827 9.094 75.2867 8.674C74.8907 8.242 74.3507 8.026 73.6667 8.026C72.9707 8.026 72.4187 8.242 72.0107 8.674C71.6147 9.094 71.4167 9.7 71.4167 10.492V16H68.8967V6.028H71.4167V7.27C71.7527 6.838 72.1787 6.502 72.6947 6.262C73.2227 6.01 73.7987 5.884 74.4227 5.884ZM90.1571 6.028L83.9831 20.716H81.3011L83.4611 15.748L79.4651 6.028H82.2911L84.8651 12.994L87.4751 6.028H90.1571Z" fill="#2E2E2E"/>
<path d="M300.888 72.416C300.888 69.072 298.44 66.72 295.288 66.72C292.152 66.72 289.688 69.072 289.688 72.416C289.688 75.76 292.152 78.112 295.288 78.112C298.44 78.112 300.888 75.76 300.888 72.416ZM291.176 72.416C291.176 69.68 292.936 67.984 295.288 67.984C297.64 67.984 299.4 69.68 299.4 72.416C299.4 75.136 297.64 76.848 295.288 76.848C292.936 76.848 291.176 75.136 291.176 72.416ZM304.266 73.232C304.266 71.2 305.322 70.576 306.714 70.576H307.098V69.072C305.706 69.072 304.762 69.68 304.266 70.656V69.232H302.81V78H304.266V73.232ZM308.235 73.584C308.235 76.304 310.043 78.144 312.395 78.144C313.995 78.144 315.131 77.328 315.659 76.352V78H317.131V66.16H315.659V70.8C315.051 69.792 313.787 69.088 312.411 69.088C310.043 69.088 308.235 70.848 308.235 73.584ZM315.659 73.6C315.659 75.664 314.283 76.864 312.683 76.864C311.083 76.864 309.723 75.648 309.723 73.584C309.723 71.52 311.083 70.352 312.683 70.352C314.283 70.352 315.659 71.568 315.659 73.6ZM323.319 70.32C324.823 70.32 326.103 71.264 326.087 72.976H320.551C320.711 71.264 321.895 70.32 323.319 70.32ZM327.415 75.296H325.847C325.527 76.24 324.695 76.912 323.383 76.912C321.895 76.912 320.647 75.936 320.535 74.16H327.543C327.575 73.856 327.591 73.6 327.591 73.28C327.591 70.88 325.927 69.088 323.383 69.088C320.823 69.088 319.047 70.832 319.047 73.6C319.047 76.384 320.887 78.144 323.383 78.144C325.559 78.144 326.967 76.896 327.415 75.296ZM330.969 73.232C330.969 71.2 332.025 70.576 333.417 70.576H333.801V69.072C332.409 69.072 331.465 69.68 330.969 70.656V69.232H329.513V78H330.969V73.232ZM340.068 75.6C340.068 77.36 340.948 78 342.5 78H343.812V76.768H342.74C341.844 76.768 341.524 76.464 341.524 75.6V70.432H343.812V69.232H341.524V67.024H340.068V69.232H338.932V70.432H340.068V75.6ZM347.032 73.232C347.032 71.2 348.088 70.576 349.48 70.576H349.864V69.072C348.472 69.072 347.528 69.68 347.032 70.656V69.232H345.576V78H347.032V73.232ZM351.001 73.584C351.001 76.304 352.809 78.144 355.145 78.144C356.761 78.144 357.897 77.312 358.425 76.368V78H359.897V69.232H358.425V70.832C357.913 69.92 356.793 69.088 355.161 69.088C352.809 69.088 351.001 70.848 351.001 73.584ZM358.425 73.6C358.425 75.664 357.049 76.864 355.449 76.864C353.849 76.864 352.489 75.648 352.489 73.584C352.489 71.52 353.849 70.352 355.449 70.352C357.049 70.352 358.425 71.568 358.425 73.6ZM361.813 73.6C361.813 76.384 363.589 78.144 366.085 78.144C368.261 78.144 369.685 76.928 370.133 75.184H368.565C368.245 76.288 367.381 76.912 366.085 76.912C364.485 76.912 363.301 75.776 363.301 73.6C363.301 71.456 364.485 70.32 366.085 70.32C367.381 70.32 368.261 70.992 368.565 72.048H370.133C369.685 70.208 368.261 69.088 366.085 69.088C363.589 69.088 361.813 70.848 361.813 73.6ZM372.076 78H373.532V74.128L376.972 78H378.956L374.812 73.6L378.94 69.232H376.908L373.532 73.12V66.16H372.076V78ZM380.31 78H381.766V69.232H380.31V78ZM381.062 67.808C381.59 67.808 382.022 67.376 382.022 66.816C382.022 66.256 381.59 65.824 381.062 65.824C380.502 65.824 380.07 66.256 380.07 66.816C380.07 67.376 380.502 67.808 381.062 67.808ZM390.664 78H392.104V72.832C392.104 70.32 390.552 69.072 388.52 69.072C387.336 69.072 386.28 69.568 385.704 70.48V69.232H384.248V78H385.704V73.152C385.704 71.264 386.728 70.336 388.216 70.336C389.688 70.336 390.664 71.248 390.664 73.04V78ZM393.938 73.584C393.938 76.304 395.746 78.144 398.098 78.144C399.698 78.144 400.834 77.296 401.362 76.352V78.192C401.362 80.064 400.194 81.056 398.642 81.056C397.202 81.056 396.162 80.336 395.842 79.28H394.402C394.69 81.152 396.338 82.32 398.642 82.32C401.218 82.32 402.834 80.608 402.834 78.192V69.232H401.362V70.832C400.85 69.888 399.698 69.088 398.098 69.088C395.746 69.088 393.938 70.848 393.938 73.584ZM401.362 73.6C401.362 75.664 399.986 76.864 398.386 76.864C396.786 76.864 395.426 75.648 395.426 73.584C395.426 71.52 396.786 70.352 398.386 70.352C399.986 70.352 401.362 71.568 401.362 73.6ZM292.488 113.016L294.104 113L296.792 104.024L299.384 113H301.016L304.248 101.848H302.68L300.232 111.272L297.672 101.848H296.04L293.352 111.304L290.92 101.848H289.368L292.488 113.016ZM305.841 113H307.297V104.232H305.841V113ZM306.593 102.808C307.121 102.808 307.553 102.376 307.553 101.816C307.553 101.256 307.121 100.824 306.593 100.824C306.033 100.824 305.601 101.256 305.601 101.816C305.601 102.376 306.033 102.808 306.593 102.808ZM316.083 110.616C316.019 107.48 310.931 108.616 310.931 106.536C310.931 105.832 311.571 105.32 312.643 105.32C313.811 105.32 314.483 105.96 314.547 106.84H316.003C315.907 105.128 314.627 104.088 312.691 104.088C310.739 104.088 309.475 105.192 309.475 106.536C309.475 109.8 314.659 108.664 314.659 110.616C314.659 111.336 314.019 111.912 312.867 111.912C311.635 111.912 310.883 111.272 310.803 110.424H309.299C309.395 112.024 310.835 113.144 312.883 113.144C314.819 113.144 316.083 112.056 316.083 110.616ZM318.138 113H319.594V108.152C319.594 106.264 320.618 105.336 322.106 105.336C323.578 105.336 324.554 106.248 324.554 108.04V113H325.994V107.832C325.994 105.32 324.442 104.072 322.49 104.072C321.258 104.072 320.17 104.568 319.594 105.496V101.16H318.138V113ZM332.638 101.848V113H337.998V111.816H334.094V101.848H332.638ZM339.545 113H341.001V104.232H339.545V113ZM340.297 102.808C340.825 102.808 341.257 102.376 341.257 101.816C341.257 101.256 340.825 100.824 340.297 100.824C339.737 100.824 339.305 101.256 339.305 101.816C339.305 102.376 339.737 102.808 340.297 102.808ZM349.786 110.616C349.722 107.48 344.634 108.616 344.634 106.536C344.634 105.832 345.274 105.32 346.346 105.32C347.514 105.32 348.186 105.96 348.25 106.84H349.706C349.61 105.128 348.33 104.088 346.394 104.088C344.442 104.088 343.178 105.192 343.178 106.536C343.178 109.8 348.362 108.664 348.362 110.616C348.362 111.336 347.722 111.912 346.57 111.912C345.338 111.912 344.586 111.272 344.506 110.424H343.002C343.098 112.024 344.538 113.144 346.586 113.144C348.522 113.144 349.786 112.056 349.786 110.616ZM352.161 110.6C352.161 112.36 353.041 113 354.593 113H355.905V111.768H354.833C353.937 111.768 353.617 111.464 353.617 110.6V105.432H355.905V104.232H353.617V102.024H352.161V104.232H351.025V105.432H352.161V110.6ZM290.232 148H291.688V139.728L295.384 148H296.408L300.088 139.744V148H301.544V136.928H299.992L295.896 146.08L291.8 136.928H290.232V148ZM307.341 146.336L304.589 139.232H302.973L306.509 147.904L304.781 152.128H306.285L311.565 139.232H310.061L307.341 146.336ZM316.751 143.584C316.751 146.304 318.559 148.144 320.895 148.144C322.511 148.144 323.647 147.312 324.175 146.368V148H325.647V139.232H324.175V140.832C323.663 139.92 322.543 139.088 320.911 139.088C318.559 139.088 316.751 140.848 316.751 143.584ZM324.175 143.6C324.175 145.664 322.799 146.864 321.199 146.864C319.599 146.864 318.239 145.648 318.239 143.584C318.239 141.52 319.599 140.352 321.199 140.352C322.799 140.352 324.175 141.568 324.175 143.6ZM327.563 143.6C327.563 146.384 329.339 148.144 331.835 148.144C334.011 148.144 335.435 146.928 335.883 145.184H334.315C333.995 146.288 333.131 146.912 331.835 146.912C330.235 146.912 329.051 145.776 329.051 143.6C329.051 141.456 330.235 140.32 331.835 140.32C333.131 140.32 334.011 140.992 334.315 142.048H335.883C335.435 140.208 334.011 139.088 331.835 139.088C329.339 139.088 327.563 140.848 327.563 143.6ZM337.282 143.6C337.282 146.384 339.058 148.144 341.554 148.144C343.73 148.144 345.154 146.928 345.602 145.184H344.034C343.714 146.288 342.85 146.912 341.554 146.912C339.954 146.912 338.77 145.776 338.77 143.6C338.77 141.456 339.954 140.32 341.554 140.32C342.85 140.32 343.73 140.992 344.034 142.048H345.602C345.154 140.208 343.73 139.088 341.554 139.088C339.058 139.088 337.282 140.848 337.282 143.6ZM355.865 143.6C355.865 140.832 353.929 139.088 351.433 139.088C348.953 139.088 347.001 140.832 347.001 143.6C347.001 146.384 348.889 148.144 351.369 148.144C353.865 148.144 355.865 146.384 355.865 143.6ZM348.489 143.6C348.489 141.392 349.881 140.352 351.417 140.352C352.921 140.352 354.377 141.392 354.377 143.6C354.377 145.824 352.889 146.864 351.369 146.864C349.849 146.864 348.489 145.824 348.489 143.6ZM365.555 139.232H364.099V144.048C364.099 145.936 363.091 146.864 361.587 146.864C360.115 146.864 359.139 145.952 359.139 144.176V139.232H357.699V144.368C357.699 146.88 359.283 148.128 361.299 148.128C362.467 148.128 363.539 147.616 364.099 146.704V148H365.555V139.232ZM374.429 148H375.869V142.832C375.869 140.32 374.317 139.072 372.285 139.072C371.101 139.072 370.045 139.568 369.469 140.48V139.232H368.013V148H369.469V143.152C369.469 141.264 370.493 140.336 371.981 140.336C373.453 140.336 374.429 141.248 374.429 143.04V148ZM378.568 145.6C378.568 147.36 379.448 148 381 148H382.312V146.768H381.24C380.344 146.768 380.024 146.464 380.024 145.6V140.432H382.312V139.232H380.024V137.024H378.568V139.232H377.432V140.432H378.568V145.6ZM289.544 173.032H292.6V183H294.056V173.032H297.096V171.848H289.544V173.032ZM302.616 175.32C304.12 175.32 305.4 176.264 305.384 177.976H299.848C300.008 176.264 301.192 175.32 302.616 175.32ZM306.712 180.296H305.144C304.824 181.24 303.992 181.912 302.68 181.912C301.192 181.912 299.944 180.936 299.832 179.16H306.84C306.872 178.856 306.888 178.6 306.888 178.28C306.888 175.88 305.224 174.088 302.68 174.088C300.12 174.088 298.344 175.832 298.344 178.6C298.344 181.384 300.184 183.144 302.68 183.144C304.856 183.144 306.264 181.896 306.712 180.296ZM310.266 178.232C310.266 176.2 311.322 175.576 312.714 175.576H313.098V174.072C311.706 174.072 310.762 174.68 310.266 175.656V174.232H308.81V183H310.266V178.232ZM327.435 183H328.875V177.832C328.875 175.32 327.323 174.072 325.323 174.072C323.979 174.072 322.731 174.76 322.219 176.024C321.643 174.712 320.443 174.072 319.003 174.072C317.851 174.072 316.811 174.568 316.235 175.496V174.232H314.779V183H316.235V178.168C316.235 176.28 317.243 175.336 318.715 175.336C320.155 175.336 321.115 176.248 321.115 178.04V183H322.555V178.168C322.555 176.28 323.563 175.336 325.035 175.336C326.475 175.336 327.435 176.248 327.435 178.04V183ZM337.567 180.616C337.503 177.48 332.415 178.616 332.415 176.536C332.415 175.832 333.055 175.32 334.127 175.32C335.295 175.32 335.967 175.96 336.031 176.84H337.487C337.391 175.128 336.111 174.088 334.175 174.088C332.223 174.088 330.959 175.192 330.959 176.536C330.959 179.8 336.143 178.664 336.143 180.616C336.143 181.336 335.503 181.912 334.351 181.912C333.119 181.912 332.367 181.272 332.287 180.424H330.783C330.879 182.024 332.319 183.144 334.367 183.144C336.303 183.144 337.567 182.056 337.567 180.616ZM350.608 174.232C350.688 172.744 349.616 171.624 347.856 171.624C346.048 171.624 344.912 172.68 344.912 174.104C344.912 174.92 345.184 175.544 345.872 176.344C344.128 177.032 343.248 178.264 343.248 179.8C343.248 181.864 344.832 183.192 347.152 183.192C348.72 183.192 349.92 182.648 350.992 181.528L352.448 183H354.352L351.84 180.488C352.064 180.168 352.272 179.848 352.48 179.48L353.792 177.208H352.224L351.136 179.032C351.04 179.192 350.944 179.336 350.848 179.48L347.52 176.136C346.736 175.304 346.368 174.76 346.368 174.104C346.368 173.368 346.928 172.824 347.792 172.824C348.576 172.824 349.184 173.32 349.152 174.232H350.608ZM347.152 181.944C345.696 181.944 344.704 181 344.704 179.752C344.704 178.632 345.36 177.8 346.752 177.272L350.032 180.568C349.2 181.496 348.304 181.944 347.152 181.944ZM359.438 177.416C359.438 180.76 361.886 183.096 365.006 183.096C367.422 183.096 369.342 181.896 370.174 179.752H368.43C367.822 181.08 366.638 181.832 365.006 181.832C362.67 181.832 360.926 180.136 360.926 177.416C360.926 174.68 362.67 172.984 365.006 172.984C366.638 172.984 367.822 173.736 368.43 175.08H370.174C369.342 172.92 367.422 171.704 365.006 171.704C361.886 171.704 359.438 174.072 359.438 177.416ZM380.661 178.6C380.661 175.832 378.725 174.088 376.229 174.088C373.749 174.088 371.797 175.832 371.797 178.6C371.797 181.384 373.685 183.144 376.165 183.144C378.661 183.144 380.661 181.384 380.661 178.6ZM373.285 178.6C373.285 176.392 374.677 175.352 376.213 175.352C377.717 175.352 379.173 176.392 379.173 178.6C379.173 180.824 377.685 181.864 376.165 181.864C374.645 181.864 373.285 180.824 373.285 178.6ZM388.992 183H390.432V177.832C390.432 175.32 388.88 174.072 386.848 174.072C385.664 174.072 384.608 174.568 384.032 175.48V174.232H382.576V183H384.032V178.152C384.032 176.264 385.056 175.336 386.544 175.336C388.016 175.336 388.992 176.248 388.992 178.04V183ZM392.266 178.584C392.266 181.304 394.074 183.144 396.426 183.144C398.026 183.144 399.162 182.328 399.69 181.352V183H401.162V171.16H399.69V175.8C399.082 174.792 397.818 174.088 396.442 174.088C394.074 174.088 392.266 175.848 392.266 178.584ZM399.69 178.6C399.69 180.664 398.314 181.864 396.714 181.864C395.114 181.864 393.754 180.648 393.754 178.584C393.754 176.52 395.114 175.352 396.714 175.352C398.314 175.352 399.69 176.568 399.69 178.6ZM403.623 183H405.079V174.232H403.623V183ZM404.375 172.808C404.903 172.808 405.335 172.376 405.335 171.816C405.335 171.256 404.903 170.824 404.375 170.824C403.815 170.824 403.383 171.256 403.383 171.816C403.383 172.376 403.815 172.808 404.375 172.808ZM407.88 180.6C407.88 182.36 408.76 183 410.312 183H411.624V181.768H410.552C409.656 181.768 409.336 181.464 409.336 180.6V175.432H411.624V174.232H409.336V172.024H407.88V174.232H406.744V175.432H407.88V180.6ZM413.388 183H414.844V174.232H413.388V183ZM414.14 172.808C414.668 172.808 415.1 172.376 415.1 171.816C415.1 171.256 414.668 170.824 414.14 170.824C413.58 170.824 413.148 171.256 413.148 171.816C413.148 172.376 413.58 172.808 414.14 172.808ZM425.646 178.6C425.646 175.832 423.71 174.088 421.214 174.088C418.734 174.088 416.782 175.832 416.782 178.6C416.782 181.384 418.67 183.144 421.15 183.144C423.646 183.144 425.646 181.384 425.646 178.6ZM418.27 178.6C418.27 176.392 419.662 175.352 421.198 175.352C422.702 175.352 424.158 176.392 424.158 178.6C424.158 180.824 422.67 181.864 421.15 181.864C419.63 181.864 418.27 180.824 418.27 178.6ZM433.976 183H435.416V177.832C435.416 175.32 433.864 174.072 431.832 174.072C430.648 174.072 429.592 174.568 429.016 175.48V174.232H427.56V183H429.016V178.152C429.016 176.264 430.04 175.336 431.528 175.336C433 175.336 433.976 176.248 433.976 178.04V183ZM444.099 180.616C444.035 177.48 438.947 178.616 438.947 176.536C438.947 175.832 439.587 175.32 440.659 175.32C441.827 175.32 442.499 175.96 442.563 176.84H444.019C443.923 175.128 442.643 174.088 440.707 174.088C438.755 174.088 437.491 175.192 437.491 176.536C437.491 179.8 442.675 178.664 442.675 180.616C442.675 181.336 442.035 181.912 440.883 181.912C439.651 181.912 438.899 181.272 438.819 180.424H437.315C437.411 182.024 438.851 183.144 440.899 183.144C442.835 183.144 444.099 182.056 444.099 180.616Z" fill="#69697B"/>
<path d="M294.58 16.126C293.704 16.126 292.912 15.976 292.204 15.676C291.508 15.376 290.956 14.944 290.548 14.38C290.14 13.816 289.93 13.15 289.918 12.382H292.618C292.654 12.898 292.834 13.306 293.158 13.606C293.494 13.906 293.95 14.056 294.526 14.056C295.114 14.056 295.576 13.918 295.912 13.642C296.248 13.354 296.416 12.982 296.416 12.526C296.416 12.154 296.302 11.848 296.074 11.608C295.846 11.368 295.558 11.182 295.21 11.05C294.874 10.906 294.406 10.75 293.806 10.582C292.99 10.342 292.324 10.108 291.808 9.88C291.304 9.64 290.866 9.286 290.494 8.818C290.134 8.338 289.954 7.702 289.954 6.91C289.954 6.166 290.14 5.518 290.512 4.966C290.884 4.414 291.406 3.994 292.078 3.706C292.75 3.406 293.518 3.256 294.382 3.256C295.678 3.256 296.728 3.574 297.532 4.21C298.348 4.834 298.798 5.71 298.882 6.838H296.11C296.086 6.406 295.9 6.052 295.552 5.776C295.216 5.488 294.766 5.344 294.202 5.344C293.71 5.344 293.314 5.47 293.014 5.722C292.726 5.974 292.582 6.34 292.582 6.82C292.582 7.156 292.69 7.438 292.906 7.666C293.134 7.882 293.41 8.062 293.734 8.206C294.07 8.338 294.538 8.494 295.138 8.674C295.954 8.914 296.62 9.154 297.136 9.394C297.652 9.634 298.096 9.994 298.468 10.474C298.84 10.954 299.026 11.584 299.026 12.364C299.026 13.036 298.852 13.66 298.504 14.236C298.156 14.812 297.646 15.274 296.974 15.622C296.302 15.958 295.504 16.126 294.58 16.126ZM310.301 10.798C310.301 11.158 310.277 11.482 310.229 11.77H302.939C302.999 12.49 303.251 13.054 303.695 13.462C304.139 13.87 304.685 14.074 305.333 14.074C306.269 14.074 306.935 13.672 307.331 12.868H310.049C309.761 13.828 309.209 14.62 308.393 15.244C307.577 15.856 306.575 16.162 305.387 16.162C304.427 16.162 303.563 15.952 302.795 15.532C302.039 15.1 301.445 14.494 301.013 13.714C300.593 12.934 300.383 12.034 300.383 11.014C300.383 9.982 300.593 9.076 301.013 8.296C301.433 7.516 302.021 6.916 302.777 6.496C303.533 6.076 304.403 5.866 305.387 5.866C306.335 5.866 307.181 6.07 307.925 6.478C308.681 6.886 309.263 7.468 309.671 8.224C310.091 8.968 310.301 9.826 310.301 10.798ZM307.691 10.078C307.679 9.43 307.445 8.914 306.989 8.53C306.533 8.134 305.975 7.936 305.315 7.936C304.691 7.936 304.163 8.128 303.731 8.512C303.311 8.884 303.053 9.406 302.957 10.078H307.691ZM314.48 7.576C314.804 7.048 315.224 6.634 315.74 6.334C316.268 6.034 316.868 5.884 317.54 5.884V8.53H316.874C316.082 8.53 315.482 8.716 315.074 9.088C314.678 9.46 314.48 10.108 314.48 11.032V16H311.96V6.028H314.48V7.576ZM323.215 13.678L325.735 6.028H328.417L324.727 16H321.667L317.995 6.028H320.695L323.215 13.678ZM330.931 4.84C330.487 4.84 330.115 4.702 329.815 4.426C329.527 4.138 329.383 3.784 329.383 3.364C329.383 2.944 329.527 2.596 329.815 2.32C330.115 2.032 330.487 1.888 330.931 1.888C331.375 1.888 331.741 2.032 332.029 2.32C332.329 2.596 332.479 2.944 332.479 3.364C332.479 3.784 332.329 4.138 332.029 4.426C331.741 4.702 331.375 4.84 330.931 4.84ZM332.173 6.028V16H329.653V6.028H332.173ZM333.835 11.014C333.835 9.982 334.045 9.082 334.465 8.314C334.885 7.534 335.467 6.934 336.211 6.514C336.955 6.082 337.807 5.866 338.767 5.866C340.003 5.866 341.023 6.178 341.827 6.802C342.643 7.414 343.189 8.278 343.465 9.394H340.747C340.603 8.962 340.357 8.626 340.009 8.386C339.673 8.134 339.253 8.008 338.749 8.008C338.029 8.008 337.459 8.272 337.039 8.8C336.619 9.316 336.409 10.054 336.409 11.014C336.409 11.962 336.619 12.7 337.039 13.228C337.459 13.744 338.029 14.002 338.749 14.002C339.769 14.002 340.435 13.546 340.747 12.634H343.465C343.189 13.714 342.643 14.572 341.827 15.208C341.011 15.844 339.991 16.162 338.767 16.162C337.807 16.162 336.955 15.952 336.211 15.532C335.467 15.1 334.885 14.5 334.465 13.732C334.045 12.952 333.835 12.046 333.835 11.014ZM354.401 10.798C354.401 11.158 354.377 11.482 354.329 11.77H347.039C347.099 12.49 347.351 13.054 347.795 13.462C348.239 13.87 348.785 14.074 349.433 14.074C350.369 14.074 351.035 13.672 351.431 12.868H354.149C353.861 13.828 353.309 14.62 352.493 15.244C351.677 15.856 350.675 16.162 349.487 16.162C348.527 16.162 347.663 15.952 346.895 15.532C346.139 15.1 345.545 14.494 345.113 13.714C344.693 12.934 344.483 12.034 344.483 11.014C344.483 9.982 344.693 9.076 345.113 8.296C345.533 7.516 346.121 6.916 346.877 6.496C347.633 6.076 348.503 5.866 349.487 5.866C350.435 5.866 351.281 6.07 352.025 6.478C352.781 6.886 353.363 7.468 353.771 8.224C354.191 8.968 354.401 9.826 354.401 10.798ZM351.791 10.078C351.779 9.43 351.545 8.914 351.089 8.53C350.633 8.134 350.075 7.936 349.415 7.936C348.791 7.936 348.263 8.128 347.831 8.512C347.411 8.884 347.153 9.406 347.057 10.078H351.791ZM359.876 16.162C359.06 16.162 358.328 16.018 357.68 15.73C357.032 15.43 356.516 15.028 356.132 14.524C355.76 14.02 355.556 13.462 355.52 12.85H358.058C358.106 13.234 358.292 13.552 358.616 13.804C358.952 14.056 359.366 14.182 359.858 14.182C360.338 14.182 360.71 14.086 360.974 13.894C361.25 13.702 361.388 13.456 361.388 13.156C361.388 12.832 361.22 12.592 360.884 12.436C360.56 12.268 360.038 12.088 359.318 11.896C358.574 11.716 357.962 11.53 357.482 11.338C357.014 11.146 356.606 10.852 356.258 10.456C355.922 10.06 355.754 9.526 355.754 8.854C355.754 8.302 355.91 7.798 356.222 7.342C356.546 6.886 357.002 6.526 357.59 6.262C358.19 5.998 358.892 5.866 359.696 5.866C360.884 5.866 361.832 6.166 362.54 6.766C363.248 7.354 363.638 8.152 363.71 9.16H361.298C361.262 8.764 361.094 8.452 360.794 8.224C360.506 7.984 360.116 7.864 359.624 7.864C359.168 7.864 358.814 7.948 358.562 8.116C358.322 8.284 358.202 8.518 358.202 8.818C358.202 9.154 358.37 9.412 358.706 9.592C359.042 9.76 359.564 9.934 360.272 10.114C360.992 10.294 361.586 10.48 362.054 10.672C362.522 10.864 362.924 11.164 363.26 11.572C363.608 11.968 363.788 12.496 363.8 13.156C363.8 13.732 363.638 14.248 363.314 14.704C363.002 15.16 362.546 15.52 361.946 15.784C361.358 16.036 360.668 16.162 359.876 16.162Z" fill="#2E2E2E"/>
</svg>
