<svg width="209" height="151" viewBox="0 0 209 151" fill="none" xmlns="http://www.w3.org/2000/svg">
<path d="M0.864063 42C0.864063 46.18 3.92406 49.12 7.94406 49.12C11.0441 49.12 13.5641 47.48 14.5041 44.6H11.2841C10.6241 45.96 9.42406 46.62 7.92406 46.62C5.48406 46.62 3.74406 44.82 3.74406 42C3.74406 39.16 5.48406 37.38 7.92406 37.38C9.42406 37.38 10.6241 38.04 11.2841 39.38H14.5041C13.5641 36.52 11.0441 34.86 7.94406 34.86C3.92406 34.86 0.864063 37.82 0.864063 42ZM19.6956 43.48C19.6956 41.34 20.6956 40.7 22.3556 40.7H23.0956V37.76C21.5556 37.76 20.3956 38.5 19.6956 39.64V37.92H16.8956V49H19.6956V43.48ZM24.9816 49H27.7816V37.92H24.9816V49ZM26.4016 36.6C27.3816 36.6 28.1216 35.88 28.1216 34.96C28.1216 34.04 27.3816 33.32 26.4016 33.32C25.4016 33.32 24.6816 34.04 24.6816 34.96C24.6816 35.88 25.4016 36.6 26.4016 36.6ZM39.148 45.84C39.068 41.78 32.928 43.04 32.928 41.02C32.928 40.38 33.468 39.96 34.508 39.96C35.608 39.96 36.288 40.54 36.368 41.4H39.048C38.888 39.2 37.268 37.74 34.588 37.74C31.848 37.74 30.208 39.22 30.208 41.06C30.208 45.12 36.468 43.86 36.468 45.84C36.468 46.48 35.868 46.98 34.768 46.98C33.648 46.98 32.868 46.34 32.768 45.5H29.948C30.068 47.56 32.008 49.18 34.788 49.18C37.488 49.18 39.148 47.74 39.148 45.84ZM44.2464 39.52V37.92H41.4464V54.28H44.2464V47.42C44.9264 48.32 46.1664 49.18 47.9064 49.18C50.7464 49.18 52.9664 46.88 52.9664 43.42C52.9664 39.96 50.7464 37.74 47.9064 37.74C46.1864 37.74 44.9064 38.58 44.2464 39.52ZM50.1064 43.42C50.1064 45.52 48.6864 46.72 47.1664 46.72C45.6664 46.72 44.2464 45.56 44.2464 43.46C44.2464 41.36 45.6664 40.2 47.1664 40.2C48.6864 40.2 50.1064 41.32 50.1064 43.42ZM59.7211 45.66L56.8611 37.92H53.7211L58.1611 48.72L55.7611 54.24H58.7411L65.6011 37.92H62.6211L59.7211 45.66ZM71.8761 49H74.6761V43.1H79.1361V40.88H74.6761V37.3H80.4961V35.04H71.8761V49ZM85.2816 43.48C85.2816 41.34 86.2816 40.7 87.9416 40.7H88.6816V37.76C87.1416 37.76 85.9816 38.5 85.2816 39.64V37.92H82.4816V49H85.2816V43.48ZM90.5675 49H93.3675V37.92H90.5675V49ZM91.9875 36.6C92.9675 36.6 93.7075 35.88 93.7075 34.96C93.7075 34.04 92.9675 33.32 91.9875 33.32C90.9875 33.32 90.2675 34.04 90.2675 34.96C90.2675 35.88 90.9875 36.6 91.9875 36.6ZM100.894 40.04C102.334 40.04 103.494 40.96 103.534 42.42H98.2739C98.4939 40.9 99.5539 40.04 100.894 40.04ZM106.154 45.52H103.134C102.774 46.26 102.114 46.86 100.914 46.86C99.5139 46.86 98.3939 45.94 98.2539 44.3H106.354C106.414 43.94 106.434 43.58 106.434 43.22C106.434 39.92 104.174 37.74 100.974 37.74C97.6939 37.74 95.4139 39.96 95.4139 43.46C95.4139 46.94 97.7539 49.18 100.974 49.18C103.714 49.18 105.554 47.56 106.154 45.52ZM107.758 43.42C107.758 46.88 109.998 49.18 112.818 49.18C114.558 49.18 115.798 48.38 116.458 47.36V49H119.298V34.2H116.458V39.46C115.698 38.42 114.298 37.74 112.838 37.74C109.998 37.74 107.758 39.96 107.758 43.42ZM116.478 43.46C116.478 45.56 115.078 46.72 113.538 46.72C112.038 46.72 110.618 45.52 110.618 43.42C110.618 41.32 112.038 40.2 113.538 40.2C115.078 40.2 116.478 41.36 116.478 43.46ZM126.118 42C126.118 46.18 129.178 49.12 133.198 49.12C136.298 49.12 138.818 47.48 139.758 44.6H136.538C135.878 45.96 134.678 46.62 133.178 46.62C130.738 46.62 128.998 44.82 128.998 42C128.998 39.16 130.738 37.38 133.178 37.38C134.678 37.38 135.878 38.04 136.538 39.38H139.758C138.818 36.52 136.298 34.86 133.198 34.86C129.178 34.86 126.118 37.82 126.118 42ZM142.15 49H144.95V42.88C144.95 41.1 145.93 40.14 147.45 40.14C148.93 40.14 149.91 41.1 149.91 42.88V49H152.71V42.5C152.71 39.44 150.89 37.76 148.39 37.76C146.91 37.76 145.67 38.36 144.95 39.3V34.2H142.15V49ZM155.372 49H158.172V37.92H155.372V49ZM156.792 36.6C157.772 36.6 158.512 35.88 158.512 34.96C158.512 34.04 157.772 33.32 156.792 33.32C155.792 33.32 155.072 34.04 155.072 34.96C155.072 35.88 155.792 36.6 156.792 36.6ZM160.219 43.46C160.219 46.94 162.499 49.18 165.699 49.18C168.459 49.18 170.319 47.62 170.919 45.26H167.899C167.559 46.26 166.839 46.78 165.679 46.78C164.119 46.78 163.079 45.62 163.079 43.46C163.079 41.3 164.119 40.12 165.679 40.12C166.839 40.12 167.579 40.72 167.899 41.66H170.919C170.319 39.18 168.459 37.74 165.699 37.74C162.499 37.74 160.219 39.98 160.219 43.46ZM172.97 49H175.77V44.28L179.53 49H183.17L178.25 43.48L183.13 37.92H179.49L175.77 42.62V34.2H172.97V49ZM189.41 40.04C190.85 40.04 192.01 40.96 192.05 42.42H186.79C187.01 40.9 188.07 40.04 189.41 40.04ZM194.67 45.52H191.65C191.29 46.26 190.63 46.86 189.43 46.86C188.03 46.86 186.91 45.94 186.77 44.3H194.87C194.93 43.94 194.95 43.58 194.95 43.22C194.95 39.92 192.69 37.74 189.49 37.74C186.21 37.74 183.93 39.96 183.93 43.46C183.93 46.94 186.27 49.18 189.49 49.18C192.23 49.18 194.07 47.56 194.67 45.52ZM204.753 49H207.553V42.5C207.553 39.44 205.713 37.76 203.133 37.76C201.713 37.76 200.513 38.36 199.793 39.3V37.92H196.993V49H199.793V42.88C199.793 41.1 200.773 40.14 202.293 40.14C203.773 40.14 204.753 41.1 204.753 42.88V49Z" fill="#212244"/>
<path d="M47.6569 76.68V71.56H50.3369C52.4169 71.56 53.2969 72.52 53.2969 74.14C53.2969 75.7 52.4169 76.68 50.3369 76.68H47.6569ZM55.1569 74.14C55.1569 71.86 53.6169 70.06 50.3369 70.06H45.8369V84H47.6569V78.18H50.3369C53.7969 78.18 55.1569 76.26 55.1569 74.14ZM59.2389 78.04C59.2389 75.5 60.5589 74.72 62.2989 74.72H62.7789V72.84C61.0389 72.84 59.8589 73.6 59.2389 74.82V73.04H57.4189V84H59.2389V78.04ZM64.8798 84H66.6998V73.04H64.8798V84ZM65.8198 71.26C66.4798 71.26 67.0198 70.72 67.0198 70.02C67.0198 69.32 66.4798 68.78 65.8198 68.78C65.1198 68.78 64.5798 69.32 64.5798 70.02C64.5798 70.72 65.1198 71.26 65.8198 71.26ZM69.1217 78.5C69.1217 81.98 71.3417 84.18 74.4617 84.18C77.1817 84.18 78.9617 82.66 79.5217 80.48H77.5617C77.1617 81.86 76.0817 82.64 74.4617 82.64C72.4617 82.64 70.9817 81.22 70.9817 78.5C70.9817 75.82 72.4617 74.4 74.4617 74.4C76.0817 74.4 77.1817 75.24 77.5617 76.56H79.5217C78.9617 74.26 77.1817 72.86 74.4617 72.86C71.3417 72.86 69.1217 75.06 69.1217 78.5ZM86.6102 74.4C88.4902 74.4 90.0902 75.58 90.0702 77.72H83.1502C83.3502 75.58 84.8302 74.4 86.6102 74.4ZM91.7302 80.62H89.7702C89.3702 81.8 88.3302 82.64 86.6902 82.64C84.8302 82.64 83.2702 81.42 83.1302 79.2H91.8902C91.9302 78.82 91.9502 78.5 91.9502 78.1C91.9502 75.1 89.8702 72.86 86.6902 72.86C83.4902 72.86 81.2702 75.04 81.2702 78.5C81.2702 81.98 83.5702 84.18 86.6902 84.18C89.4102 84.18 91.1702 82.62 91.7302 80.62Z" fill="#69697B"/>
<path d="M103.118 85.74H104.398V84.12C107.318 83.92 108.918 82.02 108.918 79.98C108.918 77.02 106.478 76.48 104.398 75.94V72.16C105.178 72.4 105.658 73 105.738 73.78H108.758C108.578 71.4 106.898 70.06 104.398 69.86V68.24H103.118V69.86C100.518 70.06 98.6381 71.6 98.6381 73.96C98.6381 76.92 101.058 77.5 103.118 78.02V81.84C102.198 81.64 101.718 81.02 101.638 80.1H98.6381C98.6981 82.5 100.538 83.88 103.118 84.1V85.74ZM106.018 80.1C106.018 81 105.418 81.7 104.398 81.88V78.38C105.338 78.7 106.018 79.16 106.018 80.1ZM101.558 73.82C101.558 72.8 102.198 72.24 103.118 72.1V75.56C102.198 75.24 101.558 74.76 101.558 73.82ZM118.09 84H120.97V69.42H116.15V72H118.09V84ZM123.776 73.26H126.516C126.616 72.34 127.196 71.46 128.556 71.46C129.836 71.46 130.536 72.14 130.536 73.28C130.536 74.72 129.336 75.18 127.696 75.18H127.116V77.48H127.696C129.776 77.48 130.816 78.08 130.816 79.72C130.816 80.88 130.096 81.76 128.696 81.76C127.196 81.76 126.356 80.86 126.296 79.6H123.576C123.696 82.66 125.876 84.1 128.756 84.1C131.816 84.1 133.496 82.34 133.496 79.96C133.496 77.98 132.516 76.78 131.036 76.32V76.24C132.096 75.88 133.236 74.76 133.236 72.94C133.236 70.78 131.636 69.08 128.636 69.08C125.836 69.08 123.916 70.56 123.776 73.26ZM138.968 82.5C138.968 81.58 138.248 80.86 137.268 80.86C136.248 80.86 135.528 81.58 135.528 82.5C135.528 83.42 136.248 84.14 137.268 84.14C138.248 84.14 138.968 83.42 138.968 82.5ZM140.904 76.52C140.904 80.78 142.184 83.96 146.304 83.96C150.424 83.96 151.704 80.78 151.704 76.52C151.704 72.3 150.424 69.14 146.304 69.14C142.184 69.14 140.904 72.3 140.904 76.52ZM148.944 76.52C148.944 79.12 148.664 81.36 146.304 81.36C143.944 81.36 143.664 79.12 143.664 76.52C143.664 74.02 143.944 71.74 146.304 71.74C148.664 71.74 148.944 74.02 148.944 76.52ZM153.833 76.52C153.833 80.78 155.113 83.96 159.233 83.96C163.353 83.96 164.633 80.78 164.633 76.52C164.633 72.3 163.353 69.14 159.233 69.14C155.113 69.14 153.833 72.3 153.833 76.52ZM161.873 76.52C161.873 79.12 161.593 81.36 159.233 81.36C156.873 81.36 156.593 79.12 156.593 76.52C156.593 74.02 156.873 71.74 159.233 71.74C161.593 71.74 161.873 74.02 161.873 76.52Z" fill="#F94A3D"/>
<path d="M65.5 0L67.9981 5.06168L73.584 5.87336L69.542 9.81332L70.4962 15.3766L65.5 12.75L60.5038 15.3766L61.458 9.81332L57.416 5.87336L63.0019 5.06168L65.5 0Z" fill="#FF9401"/>
<path d="M85.0499 0L87.548 5.06168L93.1339 5.87336L89.0919 9.81332L90.0461 15.3766L85.0499 12.75L80.0538 15.3766L81.0079 9.81332L76.9659 5.87336L82.5518 5.06168L85.0499 0Z" fill="#FF9401"/>
<path d="M104.6 0L107.098 5.06168L112.684 5.87336L108.642 9.81332L109.596 15.3766L104.6 12.75L99.6039 15.3766L100.558 9.81332L96.5161 5.87336L102.102 5.06168L104.6 0Z" fill="#FF9401"/>
<path d="M124.15 0L126.648 5.06168L132.234 5.87336L128.192 9.81332L129.146 15.3766L124.15 12.75L119.154 15.3766L120.108 9.81332L116.066 5.87336L121.652 5.06168L124.15 0Z" fill="#FF9401"/>
<path d="M143.7 0L146.198 5.06168L151.784 5.87336L147.742 9.81332L148.696 15.3766L143.7 12.75L138.704 15.3766L139.658 9.81332L135.616 5.87336L141.202 5.06168L143.7 0Z" fill="#FF9401"/>
<rect x="44.75" y="109.75" width="119.5" height="40.5" rx="9.25" stroke="#F94A3D" stroke-width="1.5"/>
<path d="M65.8816 135H67.5616L64.0756 125.256H62.2276L58.7416 135H60.4076L61.1076 133.012H65.1816L65.8816 135ZM64.7336 131.71H61.5556L63.1516 127.188L64.7336 131.71ZM68.5453 131.108C68.5453 133.488 70.1553 135.126 72.1853 135.126C73.4453 135.126 74.3693 134.538 74.8593 133.838V135H76.4693V124.64H74.8593V128.364C74.2713 127.636 73.2073 127.16 72.1993 127.16C70.1553 127.16 68.5453 128.728 68.5453 131.108ZM74.8593 131.136C74.8593 132.802 73.7253 133.74 72.5213 133.74C71.3313 133.74 70.1833 132.774 70.1833 131.108C70.1833 129.442 71.3313 128.546 72.5213 128.546C73.7253 128.546 74.8593 129.484 74.8593 131.136ZM78.0336 131.108C78.0336 133.488 79.6436 135.126 81.6736 135.126C82.9336 135.126 83.8576 134.538 84.3476 133.838V135H85.9576V124.64H84.3476V128.364C83.7596 127.636 82.6956 127.16 81.6876 127.16C79.6436 127.16 78.0336 128.728 78.0336 131.108ZM84.3476 131.136C84.3476 132.802 83.2136 133.74 82.0096 133.74C80.8196 133.74 79.6716 132.774 79.6716 131.108C79.6716 129.442 80.8196 128.546 82.0096 128.546C83.2136 128.546 84.3476 129.484 84.3476 131.136ZM91.1866 126.572H93.7906V135H95.3866V126.572H97.9766V125.27H91.1866V126.572ZM106.943 131.136C106.943 128.714 105.207 127.16 103.009 127.16C100.811 127.16 99.075 128.714 99.075 131.136C99.075 133.558 100.741 135.126 102.939 135.126C105.151 135.126 106.943 133.558 106.943 131.136ZM100.699 131.136C100.699 129.386 101.777 128.546 102.981 128.546C104.171 128.546 105.305 129.386 105.305 131.136C105.305 132.886 104.129 133.74 102.939 133.74C101.735 133.74 100.699 132.886 100.699 131.136ZM111.625 130.114C111.625 133.04 113.851 135.084 116.595 135.084C118.625 135.084 120.375 134.076 121.117 132.172H119.199C118.681 133.208 117.757 133.698 116.595 133.698C114.663 133.698 113.263 132.312 113.263 130.114C113.263 127.916 114.663 126.544 116.595 126.544C117.757 126.544 118.681 127.034 119.199 128.07H121.117C120.375 126.166 118.625 125.144 116.595 125.144C113.851 125.144 111.625 127.202 111.625 130.114ZM122.454 131.108C122.454 133.488 124.064 135.126 126.066 135.126C127.354 135.126 128.278 134.51 128.768 133.852V135H130.378V127.286H128.768V128.406C128.292 127.776 127.396 127.16 126.094 127.16C124.064 127.16 122.454 128.728 122.454 131.108ZM128.768 131.136C128.768 132.802 127.634 133.74 126.43 133.74C125.24 133.74 124.092 132.774 124.092 131.108C124.092 129.442 125.24 128.546 126.43 128.546C127.634 128.546 128.768 129.484 128.768 131.136ZM134.07 130.94C134.07 129.302 134.798 128.812 135.974 128.812H136.38V127.16C135.288 127.16 134.518 127.636 134.07 128.406V127.286H132.474V135H134.07V130.94ZM138.099 132.858C138.099 134.426 138.953 135 140.325 135H141.585V133.67H140.605C139.933 133.67 139.709 133.432 139.709 132.858V128.588H141.585V127.286H139.709V125.368H138.099V127.286H137.189V128.588H138.099V132.858ZM146.262 126.376V129.274H143.434V130.618H146.262V133.516H147.746V130.618H150.574V129.274H147.746V126.376H146.262Z" fill="#F94A3D"/>
</svg>
