<svg width="200" height="151" viewBox="0 0 200 151" fill="none" xmlns="http://www.w3.org/2000/svg">
<path d="M9.46602 41.8394C10.2527 41.9861 10.8993 42.3794 11.406 43.0194C11.9127 43.6594 12.166 44.3927 12.166 45.2194C12.166 45.9661 11.9793 46.6261 11.606 47.1994C11.246 47.7594 10.7193 48.1994 10.026 48.5194C9.33268 48.8394 8.51268 48.9994 7.56602 48.9994H1.54602V35.0394H7.30602C8.25268 35.0394 9.06602 35.1927 9.74602 35.4994C10.4393 35.8061 10.9593 36.2327 11.306 36.7794C11.666 37.3261 11.846 37.9461 11.846 38.6394C11.846 39.4527 11.626 40.1327 11.186 40.6794C10.7593 41.2261 10.186 41.6127 9.46602 41.8394ZM4.34602 40.7994H6.90602C7.57268 40.7994 8.08602 40.6527 8.44602 40.3594C8.80602 40.0527 8.98602 39.6194 8.98602 39.0594C8.98602 38.4994 8.80602 38.0661 8.44602 37.7594C8.08602 37.4527 7.57268 37.2994 6.90602 37.2994H4.34602V40.7994ZM7.16602 46.7194C7.84602 46.7194 8.37268 46.5594 8.74602 46.2394C9.13268 45.9194 9.32602 45.4661 9.32602 44.8794C9.32602 44.2794 9.12602 43.8127 8.72602 43.4794C8.32602 43.1327 7.78602 42.9594 7.10602 42.9594H4.34602V46.7194H7.16602ZM24.8576 37.9194V48.9994H22.0376V47.5994C21.6776 48.0794 21.2042 48.4594 20.6176 48.7394C20.0442 49.0061 19.4176 49.1394 18.7376 49.1394C17.8709 49.1394 17.1042 48.9594 16.4376 48.5994C15.7709 48.2261 15.2442 47.6861 14.8576 46.9794C14.4842 46.2594 14.2976 45.4061 14.2976 44.4194V37.9194H17.0976V44.0194C17.0976 44.8994 17.3176 45.5794 17.7576 46.0594C18.1976 46.5261 18.7976 46.7594 19.5576 46.7594C20.3309 46.7594 20.9376 46.5261 21.3776 46.0594C21.8176 45.5794 22.0376 44.8994 22.0376 44.0194V37.9194H24.8576ZM30.4202 39.6394C30.7802 39.0527 31.2469 38.5927 31.8202 38.2594C32.4069 37.9261 33.0736 37.7594 33.8202 37.7594V40.6994H33.0802C32.2002 40.6994 31.5336 40.9061 31.0802 41.3194C30.6402 41.7327 30.4202 42.4527 30.4202 43.4794V48.9994H27.6202V37.9194H30.4202V39.6394ZM40.0462 37.7394C40.8728 37.7394 41.5995 37.9061 42.2262 38.2394C42.8528 38.5594 43.3462 38.9794 43.7062 39.4994V37.9194H46.5262V49.0794C46.5262 50.1061 46.3195 51.0194 45.9062 51.8194C45.4928 52.6327 44.8728 53.2727 44.0462 53.7394C43.2195 54.2194 42.2195 54.4594 41.0462 54.4594C39.4728 54.4594 38.1795 54.0927 37.1662 53.3594C36.1662 52.6261 35.5995 51.6261 35.4662 50.3594H38.2462C38.3928 50.8661 38.7062 51.2661 39.1862 51.5594C39.6795 51.8661 40.2728 52.0194 40.9662 52.0194C41.7795 52.0194 42.4395 51.7727 42.9462 51.2794C43.4528 50.7994 43.7062 50.0661 43.7062 49.0794V47.3594C43.3462 47.8794 42.8462 48.3127 42.2062 48.6594C41.5795 49.0061 40.8595 49.1794 40.0462 49.1794C39.1128 49.1794 38.2595 48.9394 37.4862 48.4594C36.7128 47.9794 36.0995 47.3061 35.6462 46.4394C35.2062 45.5594 34.9862 44.5527 34.9862 43.4194C34.9862 42.2994 35.2062 41.3061 35.6462 40.4394C36.0995 39.5727 36.7062 38.9061 37.4662 38.4394C38.2395 37.9727 39.0995 37.7394 40.0462 37.7394ZM43.7062 43.4594C43.7062 42.7794 43.5728 42.1994 43.3062 41.7194C43.0395 41.2261 42.6795 40.8527 42.2262 40.5994C41.7728 40.3327 41.2862 40.1994 40.7662 40.1994C40.2462 40.1994 39.7662 40.3261 39.3262 40.5794C38.8862 40.8327 38.5262 41.2061 38.2462 41.6994C37.9795 42.1794 37.8462 42.7527 37.8462 43.4194C37.8462 44.0861 37.9795 44.6727 38.2462 45.1794C38.5262 45.6727 38.8862 46.0527 39.3262 46.3194C39.7795 46.5861 40.2595 46.7194 40.7662 46.7194C41.2862 46.7194 41.7728 46.5927 42.2262 46.3394C42.6795 46.0727 43.0395 45.6994 43.3062 45.2194C43.5728 44.7261 43.7062 44.1394 43.7062 43.4594ZM59.5609 43.2194C59.5609 43.6194 59.5342 43.9794 59.4809 44.2994H51.3809C51.4475 45.0994 51.7275 45.7261 52.2209 46.1794C52.7142 46.6327 53.3209 46.8594 54.0409 46.8594C55.0809 46.8594 55.8209 46.4127 56.2609 45.5194H59.2809C58.9609 46.5861 58.3475 47.4661 57.4409 48.1594C56.5342 48.8394 55.4209 49.1794 54.1009 49.1794C53.0342 49.1794 52.0742 48.9461 51.2209 48.4794C50.3809 47.9994 49.7209 47.3261 49.2409 46.4594C48.7742 45.5927 48.5409 44.5927 48.5409 43.4594C48.5409 42.3127 48.7742 41.3061 49.2409 40.4394C49.7075 39.5727 50.3609 38.9061 51.2009 38.4394C52.0409 37.9727 53.0075 37.7394 54.1009 37.7394C55.1542 37.7394 56.0942 37.9661 56.9209 38.4194C57.7609 38.8727 58.4075 39.5194 58.8609 40.3594C59.3275 41.1861 59.5609 42.1394 59.5609 43.2194ZM56.6609 42.4194C56.6475 41.6994 56.3875 41.1261 55.8809 40.6994C55.3742 40.2594 54.7542 40.0394 54.0209 40.0394C53.3275 40.0394 52.7409 40.2527 52.2609 40.6794C51.7942 41.0927 51.5075 41.6727 51.4009 42.4194H56.6609ZM64.4046 39.6394C64.7646 39.0527 65.2313 38.5927 65.8046 38.2594C66.3913 37.9261 67.0579 37.7594 67.8046 37.7594V40.6994H67.0646C66.1846 40.6994 65.5179 40.9061 65.0646 41.3194C64.6246 41.7327 64.4046 42.4527 64.4046 43.4794V48.9994H61.6046V37.9194H64.4046V39.6394ZM84.6362 39.3594C84.6362 40.1061 84.4562 40.8061 84.0962 41.4594C83.7495 42.1127 83.1962 42.6394 82.4362 43.0394C81.6895 43.4394 80.7428 43.6394 79.5962 43.6394H77.2562V48.9994H74.4562V35.0394H79.5962C80.6762 35.0394 81.5962 35.2261 82.3562 35.5994C83.1162 35.9727 83.6828 36.4861 84.0562 37.1394C84.4428 37.7927 84.6362 38.5327 84.6362 39.3594ZM79.4762 41.3794C80.2495 41.3794 80.8228 41.2061 81.1962 40.8594C81.5695 40.4994 81.7562 39.9994 81.7562 39.3594C81.7562 37.9994 80.9962 37.3194 79.4762 37.3194H77.2562V41.3794H79.4762ZM85.9041 43.4194C85.9041 42.2994 86.1241 41.3061 86.5641 40.4394C87.0175 39.5727 87.6241 38.9061 88.3841 38.4394C89.1575 37.9727 90.0175 37.7394 90.9641 37.7394C91.7908 37.7394 92.5108 37.9061 93.1241 38.2394C93.7508 38.5727 94.2508 38.9927 94.6241 39.4994V37.9194H97.4441V48.9994H94.6241V47.3794C94.2641 47.8994 93.7641 48.3327 93.1241 48.6794C92.4975 49.0127 91.7708 49.1794 90.9441 49.1794C90.0108 49.1794 89.1575 48.9394 88.3841 48.4594C87.6241 47.9794 87.0175 47.3061 86.5641 46.4394C86.1241 45.5594 85.9041 44.5527 85.9041 43.4194ZM94.6241 43.4594C94.6241 42.7794 94.4908 42.1994 94.2241 41.7194C93.9575 41.2261 93.5975 40.8527 93.1441 40.5994C92.6908 40.3327 92.2041 40.1994 91.6841 40.1994C91.1641 40.1994 90.6841 40.3261 90.2441 40.5794C89.8041 40.8327 89.4441 41.2061 89.1641 41.6994C88.8975 42.1794 88.7641 42.7527 88.7641 43.4194C88.7641 44.0861 88.8975 44.6727 89.1641 45.1794C89.4441 45.6727 89.8041 46.0527 90.2441 46.3194C90.6975 46.5861 91.1775 46.7194 91.6841 46.7194C92.2041 46.7194 92.6908 46.5927 93.1441 46.3394C93.5975 46.0727 93.9575 45.6994 94.2241 45.2194C94.4908 44.7261 94.6241 44.1394 94.6241 43.4594ZM103.439 40.2194V45.5794C103.439 45.9527 103.525 46.2261 103.699 46.3994C103.885 46.5594 104.192 46.6394 104.619 46.6394H105.919V48.9994H104.159C101.799 48.9994 100.619 47.8527 100.619 45.5594V40.2194H99.2988V37.9194H100.619V35.1794H103.439V37.9194H105.919V40.2194H103.439ZM111.193 40.2194V45.5794C111.193 45.9527 111.279 46.2261 111.453 46.3994C111.639 46.5594 111.946 46.6394 112.373 46.6394H113.673V48.9994H111.913C109.553 48.9994 108.373 47.8527 108.373 45.5594V40.2194H107.053V37.9194H108.373V35.1794H111.193V37.9194H113.673V40.2194H111.193ZM126.287 37.9194L119.427 54.2394H116.447L118.847 48.7194L114.407 37.9194H117.547L120.407 45.6594L123.307 37.9194H126.287ZM139.762 48.9994L136.682 43.5594H135.362V48.9994H132.562V35.0394H137.802C138.882 35.0394 139.802 35.2327 140.562 35.6194C141.322 35.9927 141.888 36.5061 142.262 37.1594C142.648 37.7994 142.842 38.5194 142.842 39.3194C142.842 40.2394 142.575 41.0727 142.042 41.8194C141.508 42.5527 140.715 43.0594 139.662 43.3394L143.002 48.9994H139.762ZM135.362 41.4594H137.702C138.462 41.4594 139.028 41.2794 139.402 40.9194C139.775 40.5461 139.962 40.0327 139.962 39.3794C139.962 38.7394 139.775 38.2461 139.402 37.8994C139.028 37.5394 138.462 37.3594 137.702 37.3594H135.362V41.4594ZM155.674 43.2194C155.674 43.6194 155.647 43.9794 155.594 44.2994H147.494C147.561 45.0994 147.841 45.7261 148.334 46.1794C148.827 46.6327 149.434 46.8594 150.154 46.8594C151.194 46.8594 151.934 46.4127 152.374 45.5194H155.394C155.074 46.5861 154.461 47.4661 153.554 48.1594C152.647 48.8394 151.534 49.1794 150.214 49.1794C149.147 49.1794 148.187 48.9461 147.334 48.4794C146.494 47.9994 145.834 47.3261 145.354 46.4594C144.887 45.5927 144.654 44.5927 144.654 43.4594C144.654 42.3127 144.887 41.3061 145.354 40.4394C145.821 39.5727 146.474 38.9061 147.314 38.4394C148.154 37.9727 149.121 37.7394 150.214 37.7394C151.267 37.7394 152.207 37.9661 153.034 38.4194C153.874 38.8727 154.521 39.5194 154.974 40.3594C155.441 41.1861 155.674 42.1394 155.674 43.2194ZM152.774 42.4194C152.761 41.6994 152.501 41.1261 151.994 40.6994C151.487 40.2594 150.867 40.0394 150.134 40.0394C149.441 40.0394 148.854 40.2527 148.374 40.6794C147.907 41.0927 147.621 41.6727 147.514 42.4194H152.774ZM156.998 43.4594C156.998 42.3127 157.231 41.3127 157.698 40.4594C158.165 39.5927 158.811 38.9261 159.638 38.4594C160.465 37.9794 161.411 37.7394 162.478 37.7394C163.851 37.7394 164.985 38.0861 165.878 38.7794C166.785 39.4594 167.391 40.4194 167.698 41.6594H164.678C164.518 41.1794 164.245 40.8061 163.858 40.5394C163.485 40.2594 163.018 40.1194 162.458 40.1194C161.658 40.1194 161.025 40.4127 160.558 40.9994C160.091 41.5727 159.858 42.3927 159.858 43.4594C159.858 44.5127 160.091 45.3327 160.558 45.9194C161.025 46.4927 161.658 46.7794 162.458 46.7794C163.591 46.7794 164.331 46.2727 164.678 45.2594H167.698C167.391 46.4594 166.785 47.4127 165.878 48.1194C164.971 48.8261 163.838 49.1794 162.478 49.1794C161.411 49.1794 160.465 48.9461 159.638 48.4794C158.811 47.9994 158.165 47.3327 157.698 46.4794C157.231 45.6127 156.998 44.6061 156.998 43.4594ZM171.169 36.5994C170.676 36.5994 170.262 36.4461 169.929 36.1394C169.609 35.8194 169.449 35.4261 169.449 34.9594C169.449 34.4927 169.609 34.1061 169.929 33.7994C170.262 33.4794 170.676 33.3194 171.169 33.3194C171.662 33.3194 172.069 33.4794 172.389 33.7994C172.722 34.1061 172.889 34.4927 172.889 34.9594C172.889 35.4261 172.722 35.8194 172.389 36.1394C172.069 36.4461 171.662 36.5994 171.169 36.5994ZM172.549 37.9194V48.9994H169.749V37.9194H172.549ZM178.116 39.5194C178.476 39.0127 178.969 38.5927 179.596 38.2594C180.236 37.9127 180.962 37.7394 181.776 37.7394C182.722 37.7394 183.576 37.9727 184.336 38.4394C185.109 38.9061 185.716 39.5727 186.156 40.4394C186.609 41.2927 186.836 42.2861 186.836 43.4194C186.836 44.5527 186.609 45.5594 186.156 46.4394C185.716 47.3061 185.109 47.9794 184.336 48.4594C183.576 48.9394 182.722 49.1794 181.776 49.1794C180.962 49.1794 180.242 49.0127 179.616 48.6794C179.002 48.3461 178.502 47.9261 178.116 47.4194V54.2794H175.316V37.9194H178.116V39.5194ZM183.976 43.4194C183.976 42.7527 183.836 42.1794 183.556 41.6994C183.289 41.2061 182.929 40.8327 182.476 40.5794C182.036 40.3261 181.556 40.1994 181.036 40.1994C180.529 40.1994 180.049 40.3327 179.596 40.5994C179.156 40.8527 178.796 41.2261 178.516 41.7194C178.249 42.2127 178.116 42.7927 178.116 43.4594C178.116 44.1261 178.249 44.7061 178.516 45.1994C178.796 45.6927 179.156 46.0727 179.596 46.3394C180.049 46.5927 180.529 46.7194 181.036 46.7194C181.556 46.7194 182.036 46.5861 182.476 46.3194C182.929 46.0527 183.289 45.6727 183.556 45.1794C183.836 44.6861 183.976 44.0994 183.976 43.4194ZM199.17 43.2194C199.17 43.6194 199.144 43.9794 199.09 44.2994H190.99C191.057 45.0994 191.337 45.7261 191.83 46.1794C192.324 46.6327 192.93 46.8594 193.65 46.8594C194.69 46.8594 195.43 46.4127 195.87 45.5194H198.89C198.57 46.5861 197.957 47.4661 197.05 48.1594C196.144 48.8394 195.03 49.1794 193.71 49.1794C192.644 49.1794 191.684 48.9461 190.83 48.4794C189.99 47.9994 189.33 47.3261 188.85 46.4594C188.384 45.5927 188.15 44.5927 188.15 43.4594C188.15 42.3127 188.384 41.3061 188.85 40.4394C189.317 39.5727 189.97 38.9061 190.81 38.4394C191.65 37.9727 192.617 37.7394 193.71 37.7394C194.764 37.7394 195.704 37.9661 196.53 38.4194C197.37 38.8727 198.017 39.5194 198.47 40.3594C198.937 41.1861 199.17 42.1394 199.17 43.2194ZM196.27 42.4194C196.257 41.6994 195.997 41.1261 195.49 40.6994C194.984 40.2594 194.364 40.0394 193.63 40.0394C192.937 40.0394 192.35 40.2527 191.87 40.6794C191.404 41.0927 191.117 41.6727 191.01 42.4194H196.27Z" fill="#212244"/>
<path d="M43.7077 76.6794V71.5594H46.3877C48.4677 71.5594 49.3477 72.5194 49.3477 74.1394C49.3477 75.6994 48.4677 76.6794 46.3877 76.6794H43.7077ZM51.2077 74.1394C51.2077 71.8594 49.6677 70.0594 46.3877 70.0594H41.8877V83.9994H43.7077V78.1794H46.3877C49.8477 78.1794 51.2077 76.2594 51.2077 74.1394ZM55.2897 78.0394C55.2897 75.4994 56.6097 74.7194 58.3497 74.7194H58.8297V72.8394C57.0897 72.8394 55.9097 73.5994 55.2897 74.8194V73.0394H53.4697V83.9994H55.2897V78.0394ZM60.9306 83.9994H62.7506V73.0394H60.9306V83.9994ZM61.8706 71.2594C62.5306 71.2594 63.0706 70.7194 63.0706 70.0194C63.0706 69.3194 62.5306 68.7794 61.8706 68.7794C61.1706 68.7794 60.6306 69.3194 60.6306 70.0194C60.6306 70.7194 61.1706 71.2594 61.8706 71.2594ZM65.1725 78.4994C65.1725 81.9794 67.3925 84.1794 70.5125 84.1794C73.2325 84.1794 75.0125 82.6594 75.5725 80.4794H73.6125C73.2125 81.8594 72.1325 82.6394 70.5125 82.6394C68.5125 82.6394 67.0325 81.2194 67.0325 78.4994C67.0325 75.8194 68.5125 74.3994 70.5125 74.3994C72.1325 74.3994 73.2325 75.2394 73.6125 76.5594H75.5725C75.0125 74.2594 73.2325 72.8594 70.5125 72.8594C67.3925 72.8594 65.1725 75.0594 65.1725 78.4994ZM82.6609 74.3994C84.5409 74.3994 86.1409 75.5794 86.1209 77.7194H79.2009C79.4009 75.5794 80.8809 74.3994 82.6609 74.3994ZM87.7809 80.6194H85.8209C85.4209 81.7994 84.3809 82.6394 82.7409 82.6394C80.8809 82.6394 79.3209 81.4194 79.1809 79.1994H87.9409C87.9809 78.8194 88.0009 78.4994 88.0009 78.0994C88.0009 75.0994 85.9209 72.8594 82.7409 72.8594C79.5409 72.8594 77.3209 75.0394 77.3209 78.4994C77.3209 81.9794 79.6209 84.1794 82.7409 84.1794C85.4609 84.1794 87.2209 82.6194 87.7809 80.6194Z" fill="#69697B"/>
<path d="M99.1689 85.7394H100.449V84.1194C103.369 83.9194 104.969 82.0194 104.969 79.9794C104.969 77.0194 102.529 76.4794 100.449 75.9394V72.1594C101.229 72.3994 101.709 72.9994 101.789 73.7794H104.809C104.629 71.3994 102.949 70.0594 100.449 69.8594V68.2394H99.1689V69.8594C96.5689 70.0594 94.6889 71.5994 94.6889 73.9594C94.6889 76.9194 97.1089 77.4994 99.1689 78.0194V81.8394C98.2489 81.6394 97.7689 81.0194 97.6889 80.0994H94.6889C94.7489 82.4994 96.5889 83.8794 99.1689 84.0994V85.7394ZM102.069 80.0994C102.069 80.9994 101.469 81.6994 100.449 81.8794V78.3794C101.389 78.6994 102.069 79.1594 102.069 80.0994ZM97.6089 73.8194C97.6089 72.7994 98.2489 72.2394 99.1689 72.0994V75.5594C98.2489 75.2394 97.6089 74.7594 97.6089 73.8194ZM114.14 83.9994H117.02V69.4194H112.2V71.9994H114.14V83.9994ZM120.547 69.3794V77.9394H123.227C123.527 77.0394 124.267 76.3994 125.427 76.3994C127.007 76.3994 127.827 77.2994 127.827 78.9394C127.827 80.4794 127.087 81.6394 125.447 81.6394C124.087 81.6394 123.267 80.8994 123.027 79.8794H120.307C120.547 82.2594 122.347 83.9994 125.487 83.9994C128.807 83.9994 130.527 81.8794 130.527 78.8994C130.527 76.6394 129.367 74.0794 125.967 74.0794C124.747 74.0794 123.647 74.5994 123.107 75.2594V71.8394H129.587V69.3794H120.547ZM135.918 82.4994C135.918 81.5794 135.198 80.8594 134.218 80.8594C133.198 80.8594 132.478 81.5794 132.478 82.4994C132.478 83.4194 133.198 84.1394 134.218 84.1394C135.198 84.1394 135.918 83.4194 135.918 82.4994ZM137.853 76.5194C137.853 80.7794 139.133 83.9594 143.253 83.9594C147.373 83.9594 148.653 80.7794 148.653 76.5194C148.653 72.2994 147.373 69.1394 143.253 69.1394C139.133 69.1394 137.853 72.2994 137.853 76.5194ZM145.893 76.5194C145.893 79.1194 145.613 81.3594 143.253 81.3594C140.893 81.3594 140.613 79.1194 140.613 76.5194C140.613 74.0194 140.893 71.7394 143.253 71.7394C145.613 71.7394 145.893 74.0194 145.893 76.5194ZM150.783 76.5194C150.783 80.7794 152.063 83.9594 156.183 83.9594C160.303 83.9594 161.583 80.7794 161.583 76.5194C161.583 72.2994 160.303 69.1394 156.183 69.1394C152.063 69.1394 150.783 72.2994 150.783 76.5194ZM158.823 76.5194C158.823 79.1194 158.543 81.3594 156.183 81.3594C153.823 81.3594 153.543 79.1194 153.543 76.5194C153.543 74.0194 153.823 71.7394 156.183 71.7394C158.543 71.7394 158.823 74.0194 158.823 76.5194Z" fill="#F94A3D"/>
<path d="M61.5 -0.000610352L63.9981 5.06107L69.584 5.87275L65.542 9.81271L66.4962 15.376L61.5 12.7494L56.5038 15.376L57.458 9.81271L53.416 5.87275L59.0019 5.06107L61.5 -0.000610352Z" fill="#FF9401"/>
<path d="M81.05 -0.000610352L83.548 5.06107L89.1339 5.87275L85.0919 9.81271L86.0461 15.376L81.05 12.7494L76.0538 15.376L77.008 9.81271L72.966 5.87275L78.5519 5.06107L81.05 -0.000610352Z" fill="#FF9401"/>
<path d="M100.6 -0.000610352L103.098 5.06107L108.684 5.87275L104.642 9.81271L105.596 15.376L100.6 12.7494L95.6038 15.376L96.558 9.81271L92.516 5.87275L98.1019 5.06107L100.6 -0.000610352Z" fill="#FF9401"/>
<path d="M120.15 -0.000610352L122.648 5.06107L128.234 5.87275L124.192 9.81271L125.146 15.376L120.15 12.7494L115.154 15.376L116.108 9.81271L112.066 5.87275L117.652 5.06107L120.15 -0.000610352Z" fill="#FF9401"/>
<path d="M139.7 -0.000610352L142.198 5.06107L147.784 5.87275L143.742 9.81271L144.696 15.376L139.7 12.7494L134.704 15.376L135.658 9.81271L131.616 5.87275L137.202 5.06107L139.7 -0.000610352Z" fill="#FF9401"/>
<rect x="40.75" y="109.749" width="119.5" height="40.5" rx="9.25" stroke="#F94A3D" stroke-width="1.5"/>
<path d="M61.8816 134.999H63.5616L60.0756 125.255H58.2276L54.7416 134.999H56.4076L57.1076 133.011H61.1816L61.8816 134.999ZM60.7336 131.709H57.5556L59.1516 127.187L60.7336 131.709ZM64.5453 131.107C64.5453 133.487 66.1553 135.125 68.1853 135.125C69.4453 135.125 70.3693 134.537 70.8593 133.837V134.999H72.4693V124.639H70.8593V128.363C70.2713 127.635 69.2073 127.159 68.1993 127.159C66.1553 127.159 64.5453 128.727 64.5453 131.107ZM70.8593 131.135C70.8593 132.801 69.7253 133.739 68.5213 133.739C67.3313 133.739 66.1833 132.773 66.1833 131.107C66.1833 129.441 67.3313 128.545 68.5213 128.545C69.7253 128.545 70.8593 129.483 70.8593 131.135ZM74.0336 131.107C74.0336 133.487 75.6436 135.125 77.6736 135.125C78.9336 135.125 79.8576 134.537 80.3476 133.837V134.999H81.9576V124.639H80.3476V128.363C79.7596 127.635 78.6956 127.159 77.6876 127.159C75.6436 127.159 74.0336 128.727 74.0336 131.107ZM80.3476 131.135C80.3476 132.801 79.2136 133.739 78.0096 133.739C76.8196 133.739 75.6716 132.773 75.6716 131.107C75.6716 129.441 76.8196 128.545 78.0096 128.545C79.2136 128.545 80.3476 129.483 80.3476 131.135ZM87.1866 126.571H89.7906V134.999H91.3866V126.571H93.9766V125.269H87.1866V126.571ZM102.943 131.135C102.943 128.713 101.207 127.159 99.009 127.159C96.811 127.159 95.075 128.713 95.075 131.135C95.075 133.557 96.741 135.125 98.939 135.125C101.151 135.125 102.943 133.557 102.943 131.135ZM96.699 131.135C96.699 129.385 97.777 128.545 98.981 128.545C100.171 128.545 101.305 129.385 101.305 131.135C101.305 132.885 100.129 133.739 98.939 133.739C97.735 133.739 96.699 132.885 96.699 131.135ZM107.625 130.113C107.625 133.039 109.851 135.083 112.595 135.083C114.625 135.083 116.375 134.075 117.117 132.171H115.199C114.681 133.207 113.757 133.697 112.595 133.697C110.663 133.697 109.263 132.311 109.263 130.113C109.263 127.915 110.663 126.543 112.595 126.543C113.757 126.543 114.681 127.033 115.199 128.069H117.117C116.375 126.165 114.625 125.143 112.595 125.143C109.851 125.143 107.625 127.201 107.625 130.113ZM118.454 131.107C118.454 133.487 120.064 135.125 122.066 135.125C123.354 135.125 124.278 134.509 124.768 133.851V134.999H126.378V127.285H124.768V128.405C124.292 127.775 123.396 127.159 122.094 127.159C120.064 127.159 118.454 128.727 118.454 131.107ZM124.768 131.135C124.768 132.801 123.634 133.739 122.43 133.739C121.24 133.739 120.092 132.773 120.092 131.107C120.092 129.441 121.24 128.545 122.43 128.545C123.634 128.545 124.768 129.483 124.768 131.135ZM130.07 130.939C130.07 129.301 130.798 128.811 131.974 128.811H132.38V127.159C131.288 127.159 130.518 127.635 130.07 128.405V127.285H128.474V134.999H130.07V130.939ZM134.099 132.857C134.099 134.425 134.953 134.999 136.325 134.999H137.585V133.669H136.605C135.933 133.669 135.709 133.431 135.709 132.857V128.587H137.585V127.285H135.709V125.367H134.099V127.285H133.189V128.587H134.099V132.857ZM142.262 126.375V129.273H139.434V130.617H142.262V133.515H143.746V130.617H146.574V129.273H143.746V126.375H142.262Z" fill="#F94A3D"/>
</svg>
