<svg width="166" height="151" viewBox="0 0 166 151" fill="none" xmlns="http://www.w3.org/2000/svg">
<path d="M16.9535 35.04V49H14.1535V39.92L10.4135 49H8.29352L4.53352 39.92V49H1.73352V35.04H4.91352L9.35352 45.42L13.7935 35.04H16.9535ZM30.1818 37.92V49H27.3618V47.6C27.0018 48.08 26.5285 48.46 25.9418 48.74C25.3685 49.0067 24.7418 49.14 24.0618 49.14C23.1951 49.14 22.4285 48.96 21.7618 48.6C21.0951 48.2267 20.5685 47.6867 20.1818 46.98C19.8085 46.26 19.6218 45.4067 19.6218 44.42V37.92H22.4218V44.02C22.4218 44.9 22.6418 45.58 23.0818 46.06C23.5218 46.5267 24.1218 46.76 24.8818 46.76C25.6551 46.76 26.2618 46.5267 26.7018 46.06C27.1418 45.58 27.3618 44.9 27.3618 44.02V37.92H30.1818ZM37.1845 49.18C36.2778 49.18 35.4645 49.02 34.7445 48.7C34.0245 48.3667 33.4511 47.92 33.0245 47.36C32.6111 46.8 32.3845 46.18 32.3445 45.5H35.1645C35.2178 45.9267 35.4245 46.28 35.7845 46.56C36.1578 46.84 36.6178 46.98 37.1645 46.98C37.6978 46.98 38.1111 46.8733 38.4045 46.66C38.7111 46.4467 38.8645 46.1733 38.8645 45.84C38.8645 45.48 38.6778 45.2133 38.3045 45.04C37.9445 44.8533 37.3645 44.6533 36.5645 44.44C35.7378 44.24 35.0578 44.0333 34.5245 43.82C34.0045 43.6067 33.5511 43.28 33.1645 42.84C32.7911 42.4 32.6045 41.8067 32.6045 41.06C32.6045 40.4467 32.7778 39.8867 33.1245 39.38C33.4845 38.8733 33.9911 38.4733 34.6445 38.18C35.3111 37.8867 36.0911 37.74 36.9845 37.74C38.3045 37.74 39.3578 38.0733 40.1445 38.74C40.9311 39.3933 41.3645 40.28 41.4445 41.4H38.7645C38.7245 40.96 38.5378 40.6133 38.2045 40.36C37.8845 40.0933 37.4511 39.96 36.9045 39.96C36.3978 39.96 36.0045 40.0533 35.7245 40.24C35.4578 40.4267 35.3245 40.6867 35.3245 41.02C35.3245 41.3933 35.5111 41.68 35.8845 41.88C36.2578 42.0667 36.8378 42.26 37.6245 42.46C38.4245 42.66 39.0845 42.8667 39.6045 43.08C40.1245 43.2933 40.5711 43.6267 40.9445 44.08C41.3311 44.52 41.5311 45.1067 41.5445 45.84C41.5445 46.48 41.3645 47.0533 41.0045 47.56C40.6578 48.0667 40.1511 48.4667 39.4845 48.76C38.8311 49.04 38.0645 49.18 37.1845 49.18ZM47.1029 40.22V45.58C47.1029 45.9533 47.1896 46.2267 47.3629 46.4C47.5496 46.56 47.8562 46.64 48.2829 46.64H49.5829V49H47.8229C45.4629 49 44.2829 47.8533 44.2829 45.56V40.22H42.9629V37.92H44.2829V35.18H47.1029V37.92H49.5829V40.22H47.1029ZM60.1168 40.68V43.04H51.6368V40.68H60.1168ZM72.757 35.04V37.3H69.037V49H66.237V37.3H62.517V35.04H72.757ZM77.5999 39.64C77.9599 39.0533 78.4266 38.5933 78.9999 38.26C79.5866 37.9267 80.2533 37.76 80.9999 37.76V40.7H80.2599C79.3799 40.7 78.7133 40.9067 78.2599 41.32C77.8199 41.7333 77.5999 42.4533 77.5999 43.48V49H74.7999V37.92H77.5999V39.64ZM93.4859 37.92L86.6259 54.24H83.6459L86.0459 48.72L81.6059 37.92H84.7459L87.6059 45.66L90.5059 37.92H93.4859ZM104.641 35.04C106.108 35.04 107.394 35.3267 108.501 35.9C109.621 36.4733 110.481 37.2933 111.081 38.36C111.694 39.4133 112.001 40.64 112.001 42.04C112.001 43.44 111.694 44.6667 111.081 45.72C110.481 46.76 109.621 47.5667 108.501 48.14C107.394 48.7133 106.108 49 104.641 49H99.7609V35.04H104.641ZM104.541 46.62C106.008 46.62 107.141 46.22 107.941 45.42C108.741 44.62 109.141 43.4933 109.141 42.04C109.141 40.5867 108.741 39.4533 107.941 38.64C107.141 37.8133 106.008 37.4 104.541 37.4H102.561V46.62H104.541ZM115.517 36.6C115.023 36.6 114.61 36.4467 114.277 36.14C113.957 35.82 113.797 35.4267 113.797 34.96C113.797 34.4933 113.957 34.1067 114.277 33.8C114.61 33.48 115.023 33.32 115.517 33.32C116.01 33.32 116.417 33.48 116.737 33.8C117.07 34.1067 117.237 34.4933 117.237 34.96C117.237 35.4267 117.07 35.82 116.737 36.14C116.417 36.4467 116.01 36.6 115.517 36.6ZM116.897 37.92V49H114.097V37.92H116.897ZM123.903 49.18C122.997 49.18 122.183 49.02 121.463 48.7C120.743 48.3667 120.17 47.92 119.743 47.36C119.33 46.8 119.103 46.18 119.063 45.5H121.883C121.937 45.9267 122.143 46.28 122.503 46.56C122.877 46.84 123.337 46.98 123.883 46.98C124.417 46.98 124.83 46.8733 125.123 46.66C125.43 46.4467 125.583 46.1733 125.583 45.84C125.583 45.48 125.397 45.2133 125.023 45.04C124.663 44.8533 124.083 44.6533 123.283 44.44C122.457 44.24 121.777 44.0333 121.243 43.82C120.723 43.6067 120.27 43.28 119.883 42.84C119.51 42.4 119.323 41.8067 119.323 41.06C119.323 40.4467 119.497 39.8867 119.843 39.38C120.203 38.8733 120.71 38.4733 121.363 38.18C122.03 37.8867 122.81 37.74 123.703 37.74C125.023 37.74 126.077 38.0733 126.863 38.74C127.65 39.3933 128.083 40.28 128.163 41.4H125.483C125.443 40.96 125.257 40.6133 124.923 40.36C124.603 40.0933 124.17 39.96 123.623 39.96C123.117 39.96 122.723 40.0533 122.443 40.24C122.177 40.4267 122.043 40.6867 122.043 41.02C122.043 41.3933 122.23 41.68 122.603 41.88C122.977 42.0667 123.557 42.26 124.343 42.46C125.143 42.66 125.803 42.8667 126.323 43.08C126.843 43.2933 127.29 43.6267 127.663 44.08C128.05 44.52 128.25 45.1067 128.263 45.84C128.263 46.48 128.083 47.0533 127.723 47.56C127.377 48.0667 126.87 48.4667 126.203 48.76C125.55 49.04 124.783 49.18 123.903 49.18ZM136.802 37.76C137.642 37.76 138.388 37.9467 139.042 38.32C139.695 38.68 140.202 39.22 140.562 39.94C140.935 40.6467 141.122 41.5 141.122 42.5V49H138.322V42.88C138.322 42 138.102 41.3267 137.662 40.86C137.222 40.38 136.622 40.14 135.862 40.14C135.088 40.14 134.475 40.38 134.022 40.86C133.582 41.3267 133.362 42 133.362 42.88V49H130.562V34.2H133.362V39.3C133.722 38.82 134.202 38.4467 134.802 38.18C135.402 37.9 136.068 37.76 136.802 37.76ZM154.084 43.22C154.084 43.62 154.058 43.98 154.004 44.3H145.904C145.971 45.1 146.251 45.7267 146.744 46.18C147.238 46.6333 147.844 46.86 148.564 46.86C149.604 46.86 150.344 46.4133 150.784 45.52H153.804C153.484 46.5867 152.871 47.4667 151.964 48.16C151.058 48.84 149.944 49.18 148.624 49.18C147.558 49.18 146.598 48.9467 145.744 48.48C144.904 48 144.244 47.3267 143.764 46.46C143.298 45.5933 143.064 44.5933 143.064 43.46C143.064 42.3133 143.298 41.3067 143.764 40.44C144.231 39.5733 144.884 38.9067 145.724 38.44C146.564 37.9733 147.531 37.74 148.624 37.74C149.678 37.74 150.618 37.9667 151.444 38.42C152.284 38.8733 152.931 39.52 153.384 40.36C153.851 41.1867 154.084 42.14 154.084 43.22ZM151.184 42.42C151.171 41.7 150.911 41.1267 150.404 40.7C149.898 40.26 149.278 40.04 148.544 40.04C147.851 40.04 147.264 40.2533 146.784 40.68C146.318 41.0933 146.031 41.6733 145.924 42.42H151.184ZM160.368 49.18C159.461 49.18 158.648 49.02 157.928 48.7C157.208 48.3667 156.635 47.92 156.208 47.36C155.795 46.8 155.568 46.18 155.528 45.5H158.348C158.401 45.9267 158.608 46.28 158.968 46.56C159.341 46.84 159.801 46.98 160.348 46.98C160.881 46.98 161.295 46.8733 161.588 46.66C161.895 46.4467 162.048 46.1733 162.048 45.84C162.048 45.48 161.861 45.2133 161.488 45.04C161.128 44.8533 160.548 44.6533 159.748 44.44C158.921 44.24 158.241 44.0333 157.708 43.82C157.188 43.6067 156.735 43.28 156.348 42.84C155.975 42.4 155.788 41.8067 155.788 41.06C155.788 40.4467 155.961 39.8867 156.308 39.38C156.668 38.8733 157.175 38.4733 157.828 38.18C158.495 37.8867 159.275 37.74 160.168 37.74C161.488 37.74 162.541 38.0733 163.328 38.74C164.115 39.3933 164.548 40.28 164.628 41.4H161.948C161.908 40.96 161.721 40.6133 161.388 40.36C161.068 40.0933 160.635 39.96 160.088 39.96C159.581 39.96 159.188 40.0533 158.908 40.24C158.641 40.4267 158.508 40.6867 158.508 41.02C158.508 41.3933 158.695 41.68 159.068 41.88C159.441 42.0667 160.021 42.26 160.808 42.46C161.608 42.66 162.268 42.8667 162.788 43.08C163.308 43.2933 163.755 43.6267 164.128 44.08C164.515 44.52 164.715 45.1067 164.728 45.84C164.728 46.48 164.548 47.0533 164.188 47.56C163.841 48.0667 163.335 48.4667 162.668 48.76C162.015 49.04 161.248 49.18 160.368 49.18Z" fill="#212244"/>
<path d="M27.401 76.68V71.56H30.081C32.161 71.56 33.041 72.52 33.041 74.14C33.041 75.7 32.161 76.68 30.081 76.68H27.401ZM34.901 74.14C34.901 71.86 33.361 70.06 30.081 70.06H25.581V84H27.401V78.18H30.081C33.541 78.18 34.901 76.26 34.901 74.14ZM38.983 78.04C38.983 75.5 40.303 74.72 42.043 74.72H42.523V72.84C40.783 72.84 39.603 73.6 38.983 74.82V73.04H37.163V84H38.983V78.04ZM44.624 84H46.444V73.04H44.624V84ZM45.564 71.26C46.224 71.26 46.764 70.72 46.764 70.02C46.764 69.32 46.224 68.78 45.564 68.78C44.864 68.78 44.324 69.32 44.324 70.02C44.324 70.72 44.864 71.26 45.564 71.26ZM48.8659 78.5C48.8659 81.98 51.0859 84.18 54.2059 84.18C56.9259 84.18 58.7059 82.66 59.2659 80.48H57.3059C56.9059 81.86 55.8259 82.64 54.2059 82.64C52.2059 82.64 50.7259 81.22 50.7259 78.5C50.7259 75.82 52.2059 74.4 54.2059 74.4C55.8259 74.4 56.9259 75.24 57.3059 76.56H59.2659C58.7059 74.26 56.9259 72.86 54.2059 72.86C51.0859 72.86 48.8659 75.06 48.8659 78.5ZM66.3543 74.4C68.2343 74.4 69.8343 75.58 69.8143 77.72H62.8943C63.0943 75.58 64.5743 74.4 66.3543 74.4ZM71.4743 80.62H69.5143C69.1143 81.8 68.0743 82.64 66.4343 82.64C64.5743 82.64 63.0143 81.42 62.8743 79.2H71.6343C71.6743 78.82 71.6943 78.5 71.6943 78.1C71.6943 75.1 69.6143 72.86 66.4343 72.86C63.2343 72.86 61.0143 75.04 61.0143 78.5C61.0143 81.98 63.3143 84.18 66.4343 84.18C69.1543 84.18 70.9143 82.62 71.4743 80.62Z" fill="#69697B"/>
<path d="M82.8623 85.74H84.1423V84.12C87.0623 83.92 88.6623 82.02 88.6623 79.98C88.6623 77.02 86.2223 76.48 84.1423 75.94V72.16C84.9223 72.4 85.4023 73 85.4823 73.78H88.5023C88.3223 71.4 86.6423 70.06 84.1423 69.86V68.24H82.8623V69.86C80.2623 70.06 78.3823 71.6 78.3823 73.96C78.3823 76.92 80.8023 77.5 82.8623 78.02V81.84C81.9423 81.64 81.4623 81.02 81.3823 80.1H78.3823C78.4423 82.5 80.2823 83.88 82.8623 84.1V85.74ZM85.7623 80.1C85.7623 81 85.1623 81.7 84.1423 81.88V78.38C85.0823 78.7 85.7623 79.16 85.7623 80.1ZM81.3023 73.82C81.3023 72.8 81.9423 72.24 82.8623 72.1V75.56C81.9423 75.24 81.3023 74.76 81.3023 73.82ZM97.8338 84H100.714V69.42H95.8938V72H97.8338V84ZM103.32 83.8H113.2V81.48H107.3C109.62 79.52 112.88 76.88 112.88 73.5C112.88 70.96 111.3 69.1 108.16 69.1C105.54 69.1 103.4 70.64 103.3 73.98H106.02C106.04 72.44 106.78 71.48 108.12 71.48C109.5 71.48 110.08 72.36 110.08 73.66C110.08 76.34 106.62 78.92 103.32 81.72V83.8ZM118.224 82.5C118.224 81.58 117.504 80.86 116.524 80.86C115.504 80.86 114.784 81.58 114.784 82.5C114.784 83.42 115.504 84.14 116.524 84.14C117.504 84.14 118.224 83.42 118.224 82.5ZM120.16 76.52C120.16 80.78 121.44 83.96 125.56 83.96C129.68 83.96 130.96 80.78 130.96 76.52C130.96 72.3 129.68 69.14 125.56 69.14C121.44 69.14 120.16 72.3 120.16 76.52ZM128.2 76.52C128.2 79.12 127.92 81.36 125.56 81.36C123.2 81.36 122.92 79.12 122.92 76.52C122.92 74.02 123.2 71.74 125.56 71.74C127.92 71.74 128.2 74.02 128.2 76.52ZM133.089 76.52C133.089 80.78 134.369 83.96 138.489 83.96C142.609 83.96 143.889 80.78 143.889 76.52C143.889 72.3 142.609 69.14 138.489 69.14C134.369 69.14 133.089 72.3 133.089 76.52ZM141.129 76.52C141.129 79.12 140.849 81.36 138.489 81.36C136.129 81.36 135.849 79.12 135.849 76.52C135.849 74.02 136.129 71.74 138.489 71.74C140.849 71.74 141.129 74.02 141.129 76.52Z" fill="url(#paint0_linear_3119_4010)"/>
<path d="M44.5 0L46.9981 5.06168L52.584 5.87336L48.542 9.81332L49.4962 15.3766L44.5 12.75L39.5038 15.3766L40.458 9.81332L36.416 5.87336L42.0019 5.06168L44.5 0Z" fill="#FF9401"/>
<path d="M64.05 0L66.548 5.06168L72.1339 5.87336L68.0919 9.81332L69.0461 15.3766L64.05 12.75L59.0538 15.3766L60.008 9.81332L55.966 5.87336L61.5519 5.06168L64.05 0Z" fill="#FF9401"/>
<path d="M83.6 0L86.0981 5.06168L91.684 5.87336L87.642 9.81332L88.5962 15.3766L83.6 12.75L78.6038 15.3766L79.558 9.81332L75.516 5.87336L81.1019 5.06168L83.6 0Z" fill="#FF9401"/>
<path d="M103.15 0L105.648 5.06168L111.234 5.87336L107.192 9.81332L108.146 15.3766L103.15 12.75L98.1538 15.3766L99.108 9.81332L95.066 5.87336L100.652 5.06168L103.15 0Z" fill="#FF9401"/>
<path d="M122.7 0L125.198 5.06168L130.784 5.87336L126.742 9.81332L127.696 15.3766L122.7 12.75L117.704 15.3766L118.658 9.81332L114.616 5.87336L120.202 5.06168L122.7 0Z" fill="#FF9401"/>
<rect x="23" y="109" width="121" height="42" rx="10" fill="#F94A3D"/>
<path d="M44.8816 135H46.5616L43.0756 125.256H41.2276L37.7416 135H39.4076L40.1076 133.012H44.1816L44.8816 135ZM43.7336 131.71H40.5556L42.1516 127.188L43.7336 131.71ZM47.5453 131.108C47.5453 133.488 49.1553 135.126 51.1853 135.126C52.4453 135.126 53.3693 134.538 53.8593 133.838V135H55.4693V124.64H53.8593V128.364C53.2713 127.636 52.2073 127.16 51.1993 127.16C49.1553 127.16 47.5453 128.728 47.5453 131.108ZM53.8593 131.136C53.8593 132.802 52.7253 133.74 51.5213 133.74C50.3313 133.74 49.1833 132.774 49.1833 131.108C49.1833 129.442 50.3313 128.546 51.5213 128.546C52.7253 128.546 53.8593 129.484 53.8593 131.136ZM57.0336 131.108C57.0336 133.488 58.6436 135.126 60.6736 135.126C61.9336 135.126 62.8576 134.538 63.3476 133.838V135H64.9576V124.64H63.3476V128.364C62.7596 127.636 61.6956 127.16 60.6876 127.16C58.6436 127.16 57.0336 128.728 57.0336 131.108ZM63.3476 131.136C63.3476 132.802 62.2136 133.74 61.0096 133.74C59.8196 133.74 58.6716 132.774 58.6716 131.108C58.6716 129.442 59.8196 128.546 61.0096 128.546C62.2136 128.546 63.3476 129.484 63.3476 131.136ZM70.1866 126.572H72.7906V135H74.3866V126.572H76.9766V125.27H70.1866V126.572ZM85.943 131.136C85.943 128.714 84.207 127.16 82.009 127.16C79.811 127.16 78.075 128.714 78.075 131.136C78.075 133.558 79.741 135.126 81.939 135.126C84.151 135.126 85.943 133.558 85.943 131.136ZM79.699 131.136C79.699 129.386 80.777 128.546 81.981 128.546C83.171 128.546 84.305 129.386 84.305 131.136C84.305 132.886 83.129 133.74 81.939 133.74C80.735 133.74 79.699 132.886 79.699 131.136ZM90.6254 130.114C90.6254 133.04 92.8514 135.084 95.5954 135.084C97.6254 135.084 99.3754 134.076 100.117 132.172H98.1994C97.6814 133.208 96.7574 133.698 95.5954 133.698C93.6634 133.698 92.2634 132.312 92.2634 130.114C92.2634 127.916 93.6634 126.544 95.5954 126.544C96.7574 126.544 97.6814 127.034 98.1994 128.07H100.117C99.3754 126.166 97.6254 125.144 95.5954 125.144C92.8514 125.144 90.6254 127.202 90.6254 130.114ZM101.454 131.108C101.454 133.488 103.064 135.126 105.066 135.126C106.354 135.126 107.278 134.51 107.768 133.852V135H109.378V127.286H107.768V128.406C107.292 127.776 106.396 127.16 105.094 127.16C103.064 127.16 101.454 128.728 101.454 131.108ZM107.768 131.136C107.768 132.802 106.634 133.74 105.43 133.74C104.24 133.74 103.092 132.774 103.092 131.108C103.092 129.442 104.24 128.546 105.43 128.546C106.634 128.546 107.768 129.484 107.768 131.136ZM113.07 130.94C113.07 129.302 113.798 128.812 114.974 128.812H115.38V127.16C114.288 127.16 113.518 127.636 113.07 128.406V127.286H111.474V135H113.07V130.94ZM117.099 132.858C117.099 134.426 117.953 135 119.325 135H120.585V133.67H119.605C118.933 133.67 118.709 133.432 118.709 132.858V128.588H120.585V127.286H118.709V125.368H117.099V127.286H116.189V128.588H117.099V132.858ZM125.262 126.376V129.274H122.434V130.618H125.262V133.516H126.746V130.618H129.574V129.274H126.746V126.376H125.262Z" fill="white"/>
<defs>
<linearGradient id="paint0_linear_3119_4010" x1="84.5" y1="67" x2="116.296" y2="107.807" gradientUnits="userSpaceOnUse">
<stop stop-color="#FF5331"/>
<stop offset="1" stop-color="#E35336"/>
</linearGradient>
</defs>
</svg>
