<svg width="183" height="151" viewBox="0 0 183 151" fill="none" xmlns="http://www.w3.org/2000/svg">
<path d="M0.938828 37.3H4.65883V49H7.45883V37.3H11.1788V35.04H0.938828V37.3ZM12.5018 43.42C12.5018 46.88 14.7418 49.18 17.5418 49.18C19.3018 49.18 20.5618 48.34 21.2218 47.38V49H24.0418V37.92H21.2218V39.5C20.5618 38.58 19.3418 37.74 17.5618 37.74C14.7418 37.74 12.5018 39.96 12.5018 43.42ZM21.2218 43.46C21.2218 45.56 19.8218 46.72 18.2818 46.72C16.7818 46.72 15.3618 45.52 15.3618 43.42C15.3618 41.32 16.7818 40.2 18.2818 40.2C19.8218 40.2 21.2218 41.36 21.2218 43.46ZM35.3765 45.84C35.2965 41.78 29.1565 43.04 29.1565 41.02C29.1565 40.38 29.6965 39.96 30.7365 39.96C31.8365 39.96 32.5165 40.54 32.5965 41.4H35.2765C35.1165 39.2 33.4965 37.74 30.8165 37.74C28.0765 37.74 26.4365 39.22 26.4365 41.06C26.4365 45.12 32.6965 43.86 32.6965 45.84C32.6965 46.48 32.0965 46.98 30.9965 46.98C29.8765 46.98 29.0965 46.34 28.9965 45.5H26.1765C26.2965 47.56 28.2365 49.18 31.0165 49.18C33.7165 49.18 35.3765 47.74 35.3765 45.84ZM38.1149 45.56C38.1149 48.1 39.5349 49 41.6549 49H43.4149V46.64H42.1149C41.2349 46.64 40.9349 46.32 40.9349 45.58V40.22H43.4149V37.92H40.9349V35.18H38.1149V37.92H36.7949V40.22H38.1149V45.56ZM50.1488 45.66L47.2888 37.92H44.1488L48.5888 48.72L46.1888 54.24H49.1688L56.0288 37.92H53.0488L50.1488 45.66ZM62.3038 49H65.1038V43.1H69.5638V40.88H65.1038V37.3H70.9238V35.04H62.3038V49ZM75.7093 43.48C75.7093 41.34 76.7093 40.7 78.3693 40.7H79.1093V37.76C77.5693 37.76 76.4093 38.5 75.7093 39.64V37.92H72.9093V49H75.7093V43.48ZM85.7552 40.04C87.1952 40.04 88.3552 40.96 88.3952 42.42H83.1352C83.3552 40.9 84.4152 40.04 85.7552 40.04ZM91.0152 45.52H87.9952C87.6352 46.26 86.9752 46.86 85.7752 46.86C84.3752 46.86 83.2552 45.94 83.1152 44.3H91.2152C91.2752 43.94 91.2952 43.58 91.2952 43.22C91.2952 39.92 89.0352 37.74 85.8352 37.74C82.5552 37.74 80.2752 39.96 80.2752 43.46C80.2752 46.94 82.6152 49.18 85.8352 49.18C88.5752 49.18 90.4152 47.56 91.0152 45.52ZM101.099 49H103.899V42.5C103.899 39.44 102.059 37.76 99.479 37.76C98.059 37.76 96.859 38.36 96.139 39.3V37.92H93.339V49H96.139V42.88C96.139 41.1 97.119 40.14 98.639 40.14C100.119 40.14 101.099 41.1 101.099 42.88V49ZM105.842 43.46C105.842 46.94 108.122 49.18 111.322 49.18C114.082 49.18 115.942 47.62 116.542 45.26H113.522C113.182 46.26 112.462 46.78 111.302 46.78C109.742 46.78 108.702 45.62 108.702 43.46C108.702 41.3 109.742 40.12 111.302 40.12C112.462 40.12 113.202 40.72 113.522 41.66H116.542C115.942 39.18 114.082 37.74 111.322 37.74C108.122 37.74 105.842 39.98 105.842 43.46ZM118.593 49H121.393V42.88C121.393 41.1 122.373 40.14 123.893 40.14C125.373 40.14 126.353 41.1 126.353 42.88V49H129.153V42.5C129.153 39.44 127.333 37.76 124.833 37.76C123.353 37.76 122.113 38.36 121.393 39.3V34.2H118.593V49ZM136.581 49H139.381V43.1H143.841V40.88H139.381V37.3H145.201V35.04H136.581V49ZM149.987 43.48C149.987 41.34 150.987 40.7 152.647 40.7H153.387V37.76C151.847 37.76 150.687 38.5 149.987 39.64V37.92H147.187V49H149.987V43.48ZM155.273 49H158.073V37.92H155.273V49ZM156.693 36.6C157.673 36.6 158.413 35.88 158.413 34.96C158.413 34.04 157.673 33.32 156.693 33.32C155.693 33.32 154.973 34.04 154.973 34.96C154.973 35.88 155.693 36.6 156.693 36.6ZM165.599 40.04C167.039 40.04 168.199 40.96 168.239 42.42H162.979C163.199 40.9 164.259 40.04 165.599 40.04ZM170.859 45.52H167.839C167.479 46.26 166.819 46.86 165.619 46.86C164.219 46.86 163.099 45.94 162.959 44.3H171.059C171.119 43.94 171.139 43.58 171.139 43.22C171.139 39.92 168.879 37.74 165.679 37.74C162.399 37.74 160.119 39.96 160.119 43.46C160.119 46.94 162.459 49.18 165.679 49.18C168.419 49.18 170.259 47.56 170.859 45.52ZM181.783 45.84C181.703 41.78 175.563 43.04 175.563 41.02C175.563 40.38 176.103 39.96 177.143 39.96C178.243 39.96 178.923 40.54 179.003 41.4H181.683C181.523 39.2 179.903 37.74 177.223 37.74C174.483 37.74 172.843 39.22 172.843 41.06C172.843 45.12 179.103 43.86 179.103 45.84C179.103 46.48 178.503 46.98 177.403 46.98C176.283 46.98 175.503 46.34 175.403 45.5H172.583C172.703 47.56 174.643 49.18 177.423 49.18C180.123 49.18 181.783 47.74 181.783 45.84Z" fill="#212244"/>
<path d="M35.6647 76.68V71.56H38.3447C40.4247 71.56 41.3047 72.52 41.3047 74.14C41.3047 75.7 40.4247 76.68 38.3447 76.68H35.6647ZM43.1647 74.14C43.1647 71.86 41.6247 70.06 38.3447 70.06H33.8447V84H35.6647V78.18H38.3447C41.8047 78.18 43.1647 76.26 43.1647 74.14ZM47.2467 78.04C47.2467 75.5 48.5667 74.72 50.3067 74.72H50.7867V72.84C49.0467 72.84 47.8667 73.6 47.2467 74.82V73.04H45.4267V84H47.2467V78.04ZM52.8877 84H54.7077V73.04H52.8877V84ZM53.8277 71.26C54.4877 71.26 55.0277 70.72 55.0277 70.02C55.0277 69.32 54.4877 68.78 53.8277 68.78C53.1277 68.78 52.5877 69.32 52.5877 70.02C52.5877 70.72 53.1277 71.26 53.8277 71.26ZM57.1295 78.5C57.1295 81.98 59.3495 84.18 62.4695 84.18C65.1895 84.18 66.9695 82.66 67.5295 80.48H65.5695C65.1695 81.86 64.0895 82.64 62.4695 82.64C60.4695 82.64 58.9895 81.22 58.9895 78.5C58.9895 75.82 60.4695 74.4 62.4695 74.4C64.0895 74.4 65.1895 75.24 65.5695 76.56H67.5295C66.9695 74.26 65.1895 72.86 62.4695 72.86C59.3495 72.86 57.1295 75.06 57.1295 78.5ZM74.618 74.4C76.498 74.4 78.098 75.58 78.078 77.72H71.158C71.358 75.58 72.838 74.4 74.618 74.4ZM79.738 80.62H77.778C77.378 81.8 76.338 82.64 74.698 82.64C72.838 82.64 71.278 81.42 71.138 79.2H79.898C79.938 78.82 79.958 78.5 79.958 78.1C79.958 75.1 77.878 72.86 74.698 72.86C71.498 72.86 69.278 75.04 69.278 78.5C69.278 81.98 71.578 84.18 74.698 84.18C77.418 84.18 79.178 82.62 79.738 80.62Z" fill="#69697B"/>
<path d="M91.1259 85.74H92.4059V84.12C95.3259 83.92 96.9259 82.02 96.9259 79.98C96.9259 77.02 94.4859 76.48 92.4059 75.94V72.16C93.1859 72.4 93.6659 73 93.7459 73.78H96.7659C96.5859 71.4 94.9059 70.06 92.4059 69.86V68.24H91.1259V69.86C88.5259 70.06 86.6459 71.6 86.6459 73.96C86.6459 76.92 89.0659 77.5 91.1259 78.02V81.84C90.2059 81.64 89.7259 81.02 89.6459 80.1H86.6459C86.7059 82.5 88.5459 83.88 91.1259 84.1V85.74ZM94.0259 80.1C94.0259 81 93.4259 81.7 92.4059 81.88V78.38C93.3459 78.7 94.0259 79.16 94.0259 80.1ZM89.5659 73.82C89.5659 72.8 90.2059 72.24 91.1259 72.1V75.56C90.2059 75.24 89.5659 74.76 89.5659 73.82ZM106.098 84H108.978V69.42H104.158V72H106.098V84ZM111.384 69.46V71.86H118.224L112.864 84H115.704L121.024 71.54V69.46H111.384ZM125.961 82.5C125.961 81.58 125.241 80.86 124.261 80.86C123.241 80.86 122.521 81.58 122.521 82.5C122.521 83.42 123.241 84.14 124.261 84.14C125.241 84.14 125.961 83.42 125.961 82.5ZM127.896 76.52C127.896 80.78 129.176 83.96 133.296 83.96C137.416 83.96 138.696 80.78 138.696 76.52C138.696 72.3 137.416 69.14 133.296 69.14C129.176 69.14 127.896 72.3 127.896 76.52ZM135.936 76.52C135.936 79.12 135.656 81.36 133.296 81.36C130.936 81.36 130.656 79.12 130.656 76.52C130.656 74.02 130.936 71.74 133.296 71.74C135.656 71.74 135.936 74.02 135.936 76.52ZM140.826 76.52C140.826 80.78 142.106 83.96 146.226 83.96C150.346 83.96 151.626 80.78 151.626 76.52C151.626 72.3 150.346 69.14 146.226 69.14C142.106 69.14 140.826 72.3 140.826 76.52ZM148.866 76.52C148.866 79.12 148.586 81.36 146.226 81.36C143.866 81.36 143.586 79.12 143.586 76.52C143.586 74.02 143.866 71.74 146.226 71.74C148.586 71.74 148.866 74.02 148.866 76.52Z" fill="#F94A3D"/>
<path d="M52.5 0L54.9981 5.06168L60.584 5.87336L56.542 9.81332L57.4962 15.3766L52.5 12.75L47.5038 15.3766L48.458 9.81332L44.416 5.87336L50.0019 5.06168L52.5 0Z" fill="#FF9401"/>
<path d="M72.0499 0L74.548 5.06168L80.1339 5.87336L76.0919 9.81332L77.0461 15.3766L72.0499 12.75L67.0538 15.3766L68.0079 9.81332L63.9659 5.87336L69.5518 5.06168L72.0499 0Z" fill="#FF9401"/>
<path d="M91.6 0L94.0981 5.06168L99.684 5.87336L95.642 9.81332L96.5962 15.3766L91.6 12.75L86.6039 15.3766L87.558 9.81332L83.5161 5.87336L89.1019 5.06168L91.6 0Z" fill="#FF9401"/>
<path d="M111.15 0L113.648 5.06168L119.234 5.87336L115.192 9.81332L116.146 15.3766L111.15 12.75L106.154 15.3766L107.108 9.81332L103.066 5.87336L108.652 5.06168L111.15 0Z" fill="#FF9401"/>
<path d="M130.7 0L133.198 5.06168L138.784 5.87336L134.742 9.81332L135.696 15.3766L130.7 12.75L125.704 15.3766L126.658 9.81332L122.616 5.87336L128.202 5.06168L130.7 0Z" fill="#FF9401"/>
<rect x="31.75" y="109.75" width="119.5" height="40.5" rx="9.25" stroke="#F94A3D" stroke-width="1.5"/>
<path d="M52.8816 135H54.5616L51.0756 125.256H49.2276L45.7416 135H47.4076L48.1076 133.012H52.1816L52.8816 135ZM51.7336 131.71H48.5556L50.1516 127.188L51.7336 131.71ZM55.5453 131.108C55.5453 133.488 57.1553 135.126 59.1853 135.126C60.4453 135.126 61.3693 134.538 61.8593 133.838V135H63.4693V124.64H61.8593V128.364C61.2713 127.636 60.2073 127.16 59.1993 127.16C57.1553 127.16 55.5453 128.728 55.5453 131.108ZM61.8593 131.136C61.8593 132.802 60.7253 133.74 59.5213 133.74C58.3313 133.74 57.1833 132.774 57.1833 131.108C57.1833 129.442 58.3313 128.546 59.5213 128.546C60.7253 128.546 61.8593 129.484 61.8593 131.136ZM65.0336 131.108C65.0336 133.488 66.6436 135.126 68.6736 135.126C69.9336 135.126 70.8576 134.538 71.3476 133.838V135H72.9576V124.64H71.3476V128.364C70.7596 127.636 69.6956 127.16 68.6876 127.16C66.6436 127.16 65.0336 128.728 65.0336 131.108ZM71.3476 131.136C71.3476 132.802 70.2136 133.74 69.0096 133.74C67.8196 133.74 66.6716 132.774 66.6716 131.108C66.6716 129.442 67.8196 128.546 69.0096 128.546C70.2136 128.546 71.3476 129.484 71.3476 131.136ZM78.1866 126.572H80.7906V135H82.3866V126.572H84.9766V125.27H78.1866V126.572ZM93.943 131.136C93.943 128.714 92.207 127.16 90.009 127.16C87.811 127.16 86.075 128.714 86.075 131.136C86.075 133.558 87.741 135.126 89.939 135.126C92.151 135.126 93.943 133.558 93.943 131.136ZM87.699 131.136C87.699 129.386 88.777 128.546 89.981 128.546C91.171 128.546 92.305 129.386 92.305 131.136C92.305 132.886 91.129 133.74 89.939 133.74C88.735 133.74 87.699 132.886 87.699 131.136ZM98.6254 130.114C98.6254 133.04 100.851 135.084 103.595 135.084C105.625 135.084 107.375 134.076 108.117 132.172H106.199C105.681 133.208 104.757 133.698 103.595 133.698C101.663 133.698 100.263 132.312 100.263 130.114C100.263 127.916 101.663 126.544 103.595 126.544C104.757 126.544 105.681 127.034 106.199 128.07H108.117C107.375 126.166 105.625 125.144 103.595 125.144C100.851 125.144 98.6254 127.202 98.6254 130.114ZM109.454 131.108C109.454 133.488 111.064 135.126 113.066 135.126C114.354 135.126 115.278 134.51 115.768 133.852V135H117.378V127.286H115.768V128.406C115.292 127.776 114.396 127.16 113.094 127.16C111.064 127.16 109.454 128.728 109.454 131.108ZM115.768 131.136C115.768 132.802 114.634 133.74 113.43 133.74C112.24 133.74 111.092 132.774 111.092 131.108C111.092 129.442 112.24 128.546 113.43 128.546C114.634 128.546 115.768 129.484 115.768 131.136ZM121.07 130.94C121.07 129.302 121.798 128.812 122.974 128.812H123.38V127.16C122.288 127.16 121.518 127.636 121.07 128.406V127.286H119.474V135H121.07V130.94ZM125.099 132.858C125.099 134.426 125.953 135 127.325 135H128.585V133.67H127.605C126.933 133.67 126.709 133.432 126.709 132.858V128.588H128.585V127.286H126.709V125.368H125.099V127.286H124.189V128.588H125.099V132.858ZM133.262 126.376V129.274H130.434V130.618H133.262V133.516H134.746V130.618H137.574V129.274H134.746V126.376H133.262Z" fill="#F94A3D"/>
</svg>
